<svg id="svg" version="1.1" xmlns="http://www.w3.org/2000/svg" xmlns:xlink="http://www.w3.org/1999/xlink" width="400" height="366.0130718954249" viewBox="0, 0, 400,366.0130718954249"><g id="svgg"><path id="path0" d="M321.978 38.638 C 315.595 39.689,309.171 42.067,304.194 45.221 C 295.351 50.824,295.059 52.419,301.526 59.760 C 305.250 63.987,306.862 64.144,312.298 60.810 C 329.167 50.466,344.345 53.926,344.412 68.132 C 344.461 78.455,340.687 83.592,313.196 110.622 C 293.864 129.630,295.055 128.010,295.055 135.286 L 295.055 140.353 296.222 141.396 C 297.923 142.916,297.573 142.903,332.601 142.783 C 371.386 142.651,367.826 143.409,368.073 135.227 C 368.358 125.749,369.513 126.239,346.337 126.007 C 326.320 125.807,325.810 125.751,324.851 123.646 C 323.763 121.259,325.261 119.494,339.243 106.680 C 351.755 95.213,357.464 88.605,360.997 81.502 C 370.227 62.941,362.414 44.361,343.247 39.289 C 338.853 38.127,327.242 37.771,321.978 38.638 M155.495 77.655 C 102.888 82.191,58.079 116.466,40.663 165.490 C 30.164 195.042,30.147 226.546,40.614 255.696 C 44.888 267.598,47.572 272.983,54.936 284.432 C 60.385 292.905,60.447 292.578,50.531 307.723 C 34.470 332.254,34.014 333.047,34.014 336.424 C 34.014 339.937,36.663 343.093,40.254 343.858 C 42.709 344.381,172.911 344.199,177.656 343.666 C 210.655 339.957,236.361 328.052,259.668 305.683 C 303.576 263.544,312.169 192.304,279.557 140.786 C 256.630 104.567,224.567 84.088,181.563 78.196 C 176.703 77.530,160.777 77.200,155.495 77.655 M182.234 93.722 C 202.212 96.794,216.647 102.431,232.784 113.461 C 289.419 152.174,301.243 229.703,258.801 284.066 C 242.277 305.232,219.252 319.704,191.514 326.357 C 181.363 328.792,174.937 329.000,113.736 328.867 C 56.454 328.743,60.107 328.897,59.046 326.567 C 57.902 324.058,58.499 322.783,66.796 310.016 C 77.382 293.725,77.229 294.817,70.191 285.809 C 59.987 272.746,51.530 254.378,48.308 238.278 C 37.832 185.934,59.684 134.372,102.747 109.822 C 119.761 100.122,138.873 94.136,156.777 92.899 C 162.316 92.516,177.608 93.010,182.234 93.722 M162.924 130.067 C 141.026 133.276,126.383 149.719,126.375 171.106 C 126.370 185.563,132.774 197.029,146.210 206.617 C 155.365 213.150,153.149 218.632,140.293 221.255 C 120.882 225.215,106.593 235.192,105.942 245.239 C 105.744 248.303,106.417 253.087,107.150 253.824 C 107.790 254.468,107.708 254.557,109.161 251.648 C 115.890 238.176,125.742 231.640,144.139 228.445 C 154.313 226.678,157.392 224.288,159.349 216.635 C 161.464 208.365,159.880 205.060,151.465 200.188 C 127.489 186.305,128.904 152.353,153.946 140.662 C 172.356 132.068,195.580 143.723,199.693 163.620 C 202.825 178.773,196.526 192.126,182.234 200.628 C 173.768 205.664,172.433 208.266,174.731 215.245 C 177.735 224.368,180.631 226.756,190.866 228.552 C 207.212 231.419,218.923 239.045,225.574 251.152 C 227.850 255.295,228.717 254.077,228.741 246.703 C 228.758 241.152,228.394 240.390,223.304 235.314 C 215.865 227.895,206.545 223.368,193.272 220.727 C 186.580 219.395,184.511 218.216,183.503 215.159 C 182.355 211.682,183.519 209.864,189.609 205.622 C 212.246 189.854,215.005 160.428,195.631 141.392 C 187.420 133.324,173.526 128.513,162.924 130.067 M224.359 279.649 C 220.130 284.100,225.755 283.700,167.399 283.700 C 109.406 283.700,114.933 284.074,110.475 279.839 C 107.365 276.885,107.173 276.827,106.551 278.663 C 105.219 282.595,106.346 287.301,109.040 289.061 C 113.656 292.077,111.994 292.000,169.231 291.868 C 225.346 291.738,221.998 291.891,225.949 289.276 C 228.582 287.534,229.808 281.488,228.189 278.232 C 227.391 276.628,227.142 276.720,224.359 279.649 " stroke="none" fill="#ede347" fill-rule="evenodd"></path><path id="path1" d="M0.035 166.941 C 0.064 301.649,0.161 334.236,0.541 335.714 L 1.012 337.546 1.110 335.714 C 1.181 334.402,1.254 334.190,1.368 334.964 C 1.456 335.559,1.794 336.240,2.119 336.478 C 2.473 336.737,2.711 337.438,2.711 338.223 C 2.711 339.704,2.311 340.337,1.849 339.588 C 1.606 339.195,1.501 339.236,1.362 339.782 C 1.207 340.384,1.178 340.391,1.141 339.835 C 1.118 339.483,0.852 339.194,0.549 339.194 C 0.071 339.194,0.000 340.944,0.000 352.747 L 0.000 366.300 9.158 366.300 C 16.741 366.300,18.315 366.213,18.315 365.790 C 18.315 365.085,19.137 364.835,21.459 364.835 C 23.199 364.835,23.443 364.925,23.443 365.568 C 23.443 366.298,23.687 366.300,100.589 366.300 C 166.292 366.300,177.705 366.225,177.539 365.791 C 177.323 365.230,178.528 364.883,181.090 364.767 C 181.921 364.729,181.200 364.595,179.487 364.469 L 176.374 364.239 178.938 364.119 C 181.264 364.010,181.366 363.974,180.037 363.736 L 178.571 363.474 180.128 363.422 C 181.959 363.361,182.212 362.749,180.495 362.536 C 179.450 362.406,179.492 362.381,180.843 362.330 C 181.776 362.294,182.502 362.056,182.687 361.724 C 183.141 360.913,186.979 360.608,189.011 361.223 L 190.659 361.722 186.813 361.925 L 182.967 362.128 188.462 362.239 C 193.924 362.350,193.943 362.354,191.758 362.813 L 189.560 363.276 192.125 363.371 C 194.276 363.451,194.482 363.510,193.407 363.736 C 192.701 363.885,192.372 364.044,192.674 364.091 C 192.976 364.137,192.811 364.294,192.308 364.438 C 191.546 364.657,191.716 364.745,193.315 364.964 C 194.641 365.145,195.238 365.393,195.238 365.764 C 195.238 366.230,198.599 366.300,220.879 366.300 C 244.098 366.300,246.520 366.245,246.520 365.717 C 246.520 365.073,250.239 365.316,250.488 365.977 C 250.559 366.163,282.403 366.300,325.305 366.300 L 400.000 366.300 400.000 183.150 L 400.000 0.000 388.278 0.000 C 377.732 0.000,375.343 0.182,377.015 0.856 C 377.288 0.967,377.214 1.053,376.832 1.070 C 376.092 1.103,375.972 1.682,376.648 1.955 C 376.900 2.057,376.694 2.169,376.190 2.205 L 375.275 2.271 376.190 2.564 C 377.097 2.854,377.095 2.858,376.029 2.894 C 375.001 2.929,374.984 2.955,375.663 3.468 C 376.299 3.950,375.874 4.003,371.612 3.979 C 367.155 3.954,366.944 3.922,368.315 3.470 L 369.780 2.987 367.949 2.915 C 366.327 2.852,366.243 2.812,367.216 2.564 C 368.244 2.303,368.208 2.278,366.667 2.186 L 365.018 2.088 366.667 1.861 L 368.315 1.634 366.958 1.353 C 365.980 1.150,365.658 0.922,365.807 0.536 C 365.987 0.066,343.484 0.000,183.006 0.000 L 0.000 0.000 0.035 166.941 M372.809 4.657 C 372.258 4.741,371.269 4.743,370.611 4.661 C 369.953 4.580,370.403 4.511,371.612 4.509 C 372.821 4.507,373.359 4.574,372.809 4.657 M308.425 8.425 C 308.425 9.048,308.227 9.533,307.967 9.546 C 307.715 9.558,306.733 9.695,305.785 9.851 C 303.272 10.265,303.025 9.290,305.311 7.977 C 307.147 6.922,308.425 7.106,308.425 8.425 M354.579 15.904 C 354.579 15.988,354.674 16.305,354.790 16.608 C 354.965 17.064,354.495 17.179,352.042 17.279 C 349.464 17.384,349.083 17.320,349.083 16.783 C 349.084 16.391,348.717 16.110,348.077 16.013 C 347.523 15.929,348.759 15.836,350.824 15.806 C 352.889 15.776,354.579 15.820,354.579 15.904 M361.172 18.173 C 361.172 18.251,360.678 18.315,360.073 18.315 C 359.469 18.315,358.974 18.179,358.974 18.012 C 358.974 17.846,359.469 17.782,360.073 17.871 C 360.678 17.959,361.172 18.096,361.172 18.173 M364.613 20.360 C 365.106 21.645,364.875 23.566,364.286 23.077 C 363.984 22.826,363.736 22.292,363.736 21.891 C 363.736 21.209,363.679 21.198,362.877 21.724 C 362.050 22.266,362.024 22.254,362.187 21.400 C 362.295 20.835,362.607 20.513,363.046 20.513 C 363.426 20.513,363.736 20.348,363.736 20.147 C 363.736 19.567,364.368 19.721,364.613 20.360 M322.962 21.960 C 324.494 22.894,325.058 23.944,324.544 24.905 C 324.060 25.810,322.089 26.888,321.908 26.347 C 321.838 26.137,321.497 26.075,321.149 26.208 C 320.801 26.341,320.608 26.598,320.720 26.778 C 320.831 26.959,320.748 27.106,320.534 27.106 C 320.321 27.106,320.147 26.960,320.147 26.782 C 320.147 26.329,317.993 26.056,317.849 26.491 C 317.521 27.474,316.117 25.935,316.117 24.593 C 316.117 21.703,320.055 20.187,322.962 21.960 M296.142 25.618 C 296.641 26.584,296.640 26.751,296.125 27.266 C 294.857 28.534,293.452 27.112,294.248 25.366 C 294.762 24.238,295.477 24.333,296.142 25.618 M293.762 30.037 C 293.762 30.525,293.722 30.525,293.407 30.037 C 293.211 29.734,293.052 29.240,293.052 28.938 C 293.052 28.449,293.091 28.449,293.407 28.938 C 293.602 29.240,293.762 29.734,293.762 30.037 M341.977 33.535 C 350.803 35.884,356.517 38.575,359.485 41.780 C 371.085 54.309,373.284 67.908,366.192 83.244 C 365.001 85.820,364.440 86.643,359.974 92.352 C 358.811 93.839,356.632 96.717,355.131 98.749 C 352.389 102.462,350.317 104.584,347.116 106.960 C 339.786 112.398,337.748 115.378,339.804 117.649 C 341.947 120.017,351.329 121.326,357.344 120.096 C 363.369 118.865,364.301 119.189,369.753 124.408 C 371.861 126.426,372.345 128.370,372.342 134.799 C 372.337 143.640,371.105 145.318,363.370 147.016 C 361.422 147.443,355.589 147.543,331.319 147.562 C 300.271 147.586,301.828 147.650,295.788 146.100 C 294.982 145.893,293.988 145.511,293.579 145.251 C 292.854 144.789,292.834 144.859,292.749 148.121 C 292.646 152.126,293.540 155.433,296.820 163.187 C 297.332 164.396,298.109 166.703,298.547 168.315 C 299.708 172.582,301.259 177.426,302.527 180.743 C 303.992 184.575,304.012 184.784,304.119 198.168 C 304.350 226.785,303.923 234.709,301.812 241.026 C 301.172 242.940,300.361 245.659,300.010 247.070 C 297.286 257.998,292.027 270.714,286.451 279.853 C 285.406 281.566,283.591 284.945,282.417 287.363 C 280.451 291.412,280.017 292.017,276.905 295.051 C 275.046 296.862,273.136 298.923,272.660 299.630 C 272.183 300.337,271.398 301.493,270.915 302.198 C 269.518 304.239,259.017 314.317,256.410 316.120 C 255.705 316.608,253.590 318.249,251.711 319.767 C 247.087 323.502,245.295 324.855,244.936 324.884 C 244.449 324.923,239.880 327.958,237.101 330.087 C 234.203 332.308,230.571 334.217,226.007 335.920 C 224.295 336.558,221.832 337.654,220.534 338.354 C 216.477 340.542,213.496 341.586,206.593 343.239 C 204.881 343.649,201.497 344.641,199.074 345.443 C 194.796 346.859,191.700 347.398,185.620 347.786 C 184.057 347.886,180.101 348.446,176.829 349.031 L 170.879 350.095 116.484 350.129 C 52.441 350.169,42.446 349.988,39.744 348.739 C 29.317 343.919,26.956 336.430,32.654 326.258 C 33.691 324.408,34.979 322.070,35.516 321.062 C 37.509 317.327,38.924 315.121,41.318 312.018 C 42.668 310.267,44.580 307.300,45.566 305.425 C 46.552 303.549,48.009 301.055,48.802 299.883 C 52.387 294.587,52.231 292.573,47.526 283.424 C 45.621 279.720,43.461 275.748,42.725 274.597 C 39.107 268.942,36.586 262.804,35.328 256.593 C 35.002 254.982,34.438 252.921,34.075 252.015 C 33.712 251.108,33.222 249.885,32.987 249.296 C 32.455 247.966,31.046 242.247,29.821 236.447 C 29.310 234.029,28.586 230.980,28.210 229.670 C 27.251 226.325,26.765 222.539,26.963 219.963 C 27.055 218.755,27.279 212.985,27.460 207.143 C 27.640 201.300,27.945 195.778,28.137 194.872 C 29.129 190.182,31.140 178.896,31.499 176.007 C 32.159 170.696,35.967 160.514,38.156 158.208 C 39.284 157.019,40.304 154.493,41.383 150.219 C 42.821 144.522,43.137 143.946,50.844 132.967 C 51.621 131.859,52.843 130.099,53.558 129.057 C 58.221 122.259,70.237 109.959,79.991 101.999 C 92.229 92.010,95.183 90.022,100.416 88.250 C 101.698 87.815,103.984 86.822,105.495 86.043 C 114.337 81.481,118.742 79.758,125.623 78.168 C 128.756 77.444,132.555 76.356,134.066 75.750 C 140.192 73.295,141.419 72.932,144.724 72.596 C 150.379 72.020,180.793 72.484,186.801 73.237 C 188.376 73.434,191.370 74.103,193.456 74.722 C 195.541 75.342,200.031 76.348,203.433 76.958 C 208.677 77.898,210.546 78.429,215.707 80.440 C 225.178 84.131,227.075 85.047,232.112 88.358 C 236.552 91.277,239.432 93.041,243.223 95.162 C 244.820 96.056,248.743 98.931,254.029 103.082 C 255.440 104.190,257.308 105.639,258.181 106.303 C 259.737 107.485,266.613 114.892,270.862 119.963 C 272.043 121.374,274.120 123.622,275.478 124.960 C 276.835 126.298,278.814 128.688,279.875 130.271 C 284.428 137.064,286.395 137.738,288.797 133.326 C 289.336 132.335,289.930 131.430,290.117 131.314 C 290.304 131.199,290.707 130.262,291.013 129.232 C 291.319 128.203,291.900 126.799,292.305 126.113 C 292.709 125.428,293.040 124.566,293.040 124.200 C 293.040 122.531,294.373 120.558,297.387 117.766 C 299.126 116.154,303.434 112.019,306.959 108.576 C 310.485 105.134,314.496 101.508,315.871 100.518 C 317.735 99.177,319.927 96.850,324.468 91.392 C 327.820 87.363,331.402 83.159,332.427 82.051 C 338.117 75.903,339.845 69.569,337.040 65.146 C 333.457 59.496,328.099 59.553,315.201 65.377 C 314.597 65.650,313.443 65.995,312.637 66.144 C 311.832 66.293,310.642 66.637,309.993 66.907 C 308.261 67.630,304.802 67.534,303.283 66.720 C 299.516 64.702,298.530 64.066,297.162 62.773 C 295.694 61.386,294.139 58.909,294.139 57.958 C 294.139 57.695,293.810 56.834,293.407 56.044 C 292.123 53.529,292.755 48.518,294.490 47.445 C 294.689 47.322,295.119 46.659,295.446 45.971 C 297.772 41.068,306.364 36.901,320.879 33.634 C 331.135 31.326,333.629 31.314,341.977 33.535 M372.275 39.586 C 373.410 39.901,373.650 40.123,373.557 40.772 C 373.346 42.249,369.890 42.193,369.505 40.706 C 369.113 39.196,369.829 38.907,372.275 39.586 M242.493 45.055 C 242.662 45.055,243.308 45.482,243.928 46.003 C 246.348 48.040,244.976 51.967,240.883 54.720 C 238.944 56.023,237.213 55.973,238.535 54.652 C 238.877 54.310,238.816 54.211,238.260 54.204 C 236.607 54.185,235.312 52.272,235.902 50.721 C 237.354 46.902,242.369 45.461,243.603 48.509 C 243.882 49.200,243.912 49.180,243.933 48.290 C 243.979 46.342,243.714 46.154,240.925 46.154 C 239.503 46.154,238.457 46.036,238.601 45.892 C 239.049 45.444,241.184 44.771,241.697 44.917 C 241.965 44.993,242.323 45.055,242.493 45.055 M222.484 51.276 C 222.737 51.528,222.421 51.648,221.502 51.648 L 220.147 51.648 220.147 53.457 L 220.147 55.266 221.798 55.514 C 222.707 55.650,223.902 55.676,224.454 55.570 L 225.458 55.379 224.359 56.259 C 221.481 58.566,218.367 57.282,217.389 53.387 C 216.847 51.228,220.799 49.590,222.484 51.276 M111.722 56.227 C 112.095 56.677,112.070 56.777,111.583 56.777 C 111.256 56.777,110.989 56.529,110.989 56.227 C 110.989 55.925,111.051 55.678,111.127 55.678 C 111.203 55.678,111.471 55.925,111.722 56.227 M154.174 59.434 C 155.887 60.099,156.045 60.240,155.364 60.492 C 154.932 60.652,154.331 60.688,154.029 60.572 C 153.727 60.456,153.480 60.544,153.480 60.767 C 153.480 60.990,153.233 61.172,152.930 61.172 C 152.625 61.172,152.381 61.498,152.381 61.905 C 152.381 62.312,152.137 62.637,151.832 62.637 C 151.490 62.637,151.282 62.983,151.282 63.553 C 151.282 64.588,150.282 64.761,148.033 64.116 C 145.947 63.518,144.997 61.165,146.429 60.144 C 149.331 58.073,150.410 57.974,154.174 59.434 M247.070 65.568 C 247.198 65.776,246.890 65.934,246.359 65.934 C 245.843 65.934,245.421 65.769,245.421 65.568 C 245.421 65.366,245.741 65.201,246.132 65.201 C 246.523 65.201,246.945 65.366,247.070 65.568 M223.188 68.490 C 224.958 69.612,225.550 70.321,224.084 69.562 C 223.322 69.168,223.332 69.215,224.223 70.191 C 228.043 74.377,224.789 77.337,219.817 74.199 C 217.199 72.547,216.723 71.318,218.004 69.520 L 218.791 68.414 217.912 68.667 C 217.141 68.889,217.168 68.827,218.132 68.162 C 219.654 67.112,221.170 67.210,223.188 68.490 M220.147 68.132 C 219.718 68.409,219.819 68.488,220.604 68.493 C 221.158 68.496,221.612 68.333,221.612 68.132 C 221.612 67.669,220.863 67.669,220.147 68.132 M107.825 75.467 C 108.328 75.934,107.729 76.557,106.777 76.557 C 105.776 76.557,105.334 76.039,105.643 75.232 C 105.858 74.673,107.116 74.809,107.825 75.467 M284.615 85.714 C 284.866 86.319,285.189 86.813,285.334 86.813 C 285.595 86.813,286.570 88.684,286.369 88.801 C 284.187 90.079,282.418 89.060,282.418 86.525 C 282.418 84.285,283.810 83.771,284.615 85.714 M300.877 85.561 C 301.778 87.910,300.120 93.180,298.539 92.991 C 298.235 92.954,297.161 93.301,296.154 93.761 C 292.523 95.419,289.337 95.029,288.925 92.876 C 288.695 91.671,289.241 90.862,290.695 90.254 C 291.379 89.969,291.898 89.555,291.848 89.336 C 291.799 89.116,292.467 88.721,293.332 88.458 C 295.344 87.846,297.447 86.870,298.237 86.181 C 298.577 85.885,299.013 85.740,299.206 85.859 C 299.399 85.979,299.651 85.830,299.767 85.529 C 300.041 84.814,300.596 84.830,300.877 85.561 M52.747 91.026 C 52.747 91.961,52.247 92.248,51.821 91.558 C 51.516 91.065,51.878 90.110,52.369 90.110 C 52.577 90.110,52.747 90.522,52.747 91.026 M273.045 98.355 C 273.444 98.657,274.108 98.794,274.589 98.673 C 275.194 98.522,275.815 98.776,276.775 99.567 C 277.513 100.176,278.302 100.609,278.527 100.530 C 279.499 100.191,281.083 102.580,280.235 103.104 C 280.025 103.234,279.853 103.825,279.853 104.417 C 279.853 105.877,279.387 105.773,277.951 103.993 C 275.246 100.641,274.618 99.998,272.996 98.924 C 272.065 98.307,271.537 97.807,271.824 97.814 C 272.110 97.820,272.659 98.064,273.045 98.355 M152.930 99.280 C 151.319 99.667,147.612 100.160,144.694 100.376 C 138.453 100.837,137.452 101.037,133.125 102.684 C 131.326 103.368,128.740 104.206,127.380 104.546 C 124.566 105.248,122.015 106.357,120.147 107.692 C 118.454 108.901,116.069 109.987,113.370 110.778 C 108.699 112.146,106.828 113.154,103.114 116.301 C 100.505 118.512,98.363 119.943,95.670 121.276 L 91.889 123.146 82.287 132.727 C 72.733 142.259,72.674 142.327,70.712 146.154 C 69.628 148.269,67.755 151.566,66.550 153.480 C 63.453 158.400,59.967 165.712,59.010 169.294 C 58.012 173.031,56.429 177.891,55.332 180.586 C 53.607 184.825,53.441 185.803,53.116 193.590 C 52.904 198.659,52.526 202.719,52.007 205.495 C 51.163 210.002,51.161 214.856,51.999 221.062 C 52.217 222.674,52.476 226.258,52.575 229.027 C 52.674 231.796,52.990 234.928,53.277 235.987 C 53.564 237.046,54.536 240.467,55.436 243.590 C 56.336 246.712,57.189 249.830,57.333 250.517 C 57.745 252.493,59.711 257.113,60.873 258.834 C 61.457 259.699,63.013 262.598,64.331 265.276 C 67.846 272.419,71.796 278.904,74.779 282.428 C 77.394 285.518,78.732 287.800,78.746 289.194 C 78.749 289.597,79.016 291.013,79.338 292.340 C 79.875 294.554,79.875 294.933,79.335 296.919 C 79.011 298.110,78.666 299.431,78.569 299.855 C 77.867 302.930,76.639 305.247,72.832 310.686 C 67.973 317.627,67.244 319.549,68.654 321.702 C 70.087 323.889,70.768 323.952,90.039 323.664 C 99.648 323.521,123.168 323.415,142.308 323.428 C 184.010 323.457,184.650 323.413,193.290 319.935 C 195.543 319.028,199.611 317.731,202.330 317.052 C 212.842 314.428,221.826 310.173,227.839 304.971 C 228.947 304.013,231.667 302.017,233.883 300.537 C 239.115 297.042,244.484 292.221,250.210 285.874 C 255.064 280.494,255.151 280.369,257.480 275.458 C 258.351 273.621,259.674 271.580,260.706 270.482 C 263.292 267.727,264.265 266.165,266.054 261.905 C 266.942 259.789,268.506 256.493,269.529 254.579 C 270.553 252.665,271.897 249.615,272.518 247.802 C 273.138 245.989,273.808 244.216,274.007 243.862 C 275.465 241.265,276.459 236.646,276.746 231.136 C 276.856 229.020,277.182 225.888,277.471 224.176 C 278.111 220.380,278.278 202.006,277.713 197.619 C 277.505 196.007,277.068 192.381,276.741 189.560 C 276.332 186.030,275.817 183.519,275.090 181.502 C 271.157 170.592,270.292 168.368,268.970 165.751 C 268.156 164.139,266.975 161.584,266.346 160.073 C 265.717 158.562,264.464 156.255,263.561 154.945 C 260.077 149.888,257.225 145.515,256.038 143.407 C 252.713 137.503,250.424 134.755,246.856 132.385 C 245.529 131.504,242.892 129.245,240.995 127.366 C 239.098 125.487,236.227 122.980,234.615 121.795 C 233.004 120.610,230.449 118.719,228.938 117.593 C 225.148 114.768,223.784 113.923,219.191 111.554 C 216.997 110.422,213.883 108.765,212.271 107.872 C 210.659 106.978,208.434 105.987,207.326 105.669 C 201.733 104.065,200.068 103.491,197.315 102.214 C 194.242 100.789,191.617 100.196,186.813 99.844 C 185.302 99.733,182.747 99.540,181.136 99.415 C 179.524 99.291,175.321 99.144,171.795 99.089 C 168.269 99.035,163.242 98.897,160.623 98.783 C 156.678 98.611,155.358 98.697,152.930 99.280 M368.890 103.815 C 368.548 104.228,368.602 104.379,369.156 104.555 C 370.775 105.069,371.181 108.186,369.833 109.753 C 368.440 111.373,365.589 109.762,365.555 107.336 L 365.542 106.410 364.983 107.326 L 364.425 108.242 364.635 106.977 C 364.892 105.437,366.061 104.124,367.562 103.688 C 369.181 103.218,369.371 103.236,368.890 103.815 M188.024 106.618 C 189.766 107.102,190.147 107.945,189.031 108.848 C 187.335 110.222,183.150 109.361,183.150 107.638 C 183.150 106.386,185.452 105.904,188.024 106.618 M53.044 107.707 C 53.982 108.580,54.063 108.851,53.297 108.557 C 52.688 108.324,52.534 108.982,53.114 109.341 C 54.631 110.279,52.714 113.187,50.577 113.187 C 48.177 113.187,47.245 110.685,48.993 108.934 C 49.603 108.323,49.590 108.303,48.718 108.523 L 47.802 108.754 48.830 107.857 C 50.110 106.739,51.936 106.674,53.044 107.707 M290.385 107.403 C 290.838 107.377,291.727 107.322,292.360 107.280 C 293.056 107.234,293.676 107.431,293.932 107.780 C 294.236 108.196,294.527 108.259,294.979 108.006 C 296.176 107.336,295.660 108.822,294.182 110.300 C 292.266 112.215,289.954 112.337,288.266 110.610 C 286.562 108.867,286.799 106.662,288.634 107.185 C 289.143 107.330,289.931 107.429,290.385 107.403 M151.097 113.132 C 152.838 114.144,152.787 115.665,150.958 117.317 C 149.895 118.277,149.656 118.668,150.079 118.751 C 150.986 118.929,145.433 121.509,143.589 121.766 C 141.470 122.061,136.437 121.364,134.997 120.575 L 133.883 119.965 135.019 119.854 C 136.017 119.755,136.133 119.629,135.978 118.815 C 135.310 115.325,147.190 110.859,151.097 113.132 M154.579 115.659 C 154.579 115.810,154.002 116.394,153.297 116.957 C 151.777 118.170,151.609 117.863,152.999 116.412 C 153.963 115.406,154.579 115.112,154.579 115.659 M212.994 123.791 C 213.669 125.096,213.683 125.275,213.109 125.275 C 212.865 125.275,212.315 125.713,211.888 126.250 C 210.923 127.459,210.394 127.171,210.071 125.260 C 209.637 122.692,211.851 121.580,212.994 123.791 M128.938 125.617 C 128.938 126.380,127.625 127.839,126.939 127.839 C 124.850 127.839,124.670 126.131,126.640 125.005 C 128.092 124.175,128.938 124.400,128.938 125.617 M174.725 125.482 C 181.108 126.621,184.907 128.119,192.125 132.345 C 201.250 137.689,201.915 138.285,203.846 142.857 C 204.229 143.764,205.030 145.139,205.626 145.914 C 208.531 149.689,209.435 151.489,210.851 156.313 C 211.338 157.971,212.150 160.108,212.657 161.061 C 215.553 166.507,215.351 174.117,212.067 183.333 C 211.420 185.147,210.770 186.795,210.622 186.996 C 210.473 187.198,210.146 188.022,209.895 188.828 C 208.431 193.521,203.306 201.432,199.209 205.322 C 193.214 211.014,192.953 212.223,197.110 215.046 C 199.611 216.744,203.544 218.681,204.494 218.681 C 206.882 218.682,213.509 221.263,215.385 222.923 C 215.687 223.190,216.270 223.705,216.681 224.067 C 217.730 224.991,221.861 227.839,222.152 227.839 C 222.494 227.839,224.874 229.609,226.280 230.909 C 226.934 231.514,227.905 232.842,228.438 233.861 C 228.971 234.881,229.784 236.209,230.245 236.814 C 230.706 237.418,231.437 238.654,231.869 239.561 C 232.301 240.467,233.045 241.924,233.521 242.798 C 235.011 245.531,235.018 253.114,233.530 253.114 C 232.707 253.114,232.342 263.569,232.841 272.857 C 232.974 275.317,233.193 277.150,233.329 276.930 C 233.465 276.710,233.799 277.460,234.072 278.596 C 234.571 280.679,234.180 284.427,233.407 284.957 C 233.240 285.071,232.726 286.187,232.264 287.437 C 229.892 293.860,218.785 298.498,207.888 297.617 C 206.068 297.469,186.395 297.373,164.171 297.403 C 122.316 297.458,118.637 297.353,113.082 295.941 C 110.126 295.189,106.960 293.842,106.960 293.336 C 106.960 293.177,106.459 292.600,105.847 292.055 C 103.973 290.385,102.676 288.066,102.198 285.531 C 101.951 284.221,101.602 283.150,101.424 283.150 C 101.245 283.150,101.118 282.120,101.142 280.861 C 101.177 279.038,101.243 278.796,101.465 279.670 C 101.649 280.393,101.788 279.137,101.870 276.007 C 101.981 271.794,101.980 268.850,101.861 257.396 C 101.844 255.720,101.690 254.623,101.489 254.747 C 100.114 255.597,100.637 245.637,102.191 241.392 C 102.817 239.679,103.374 238.071,103.427 237.817 C 103.480 237.563,103.720 237.159,103.960 236.919 C 104.199 236.680,104.396 236.338,104.396 236.161 C 104.396 235.983,105.012 235.068,105.765 234.128 C 112.214 226.076,115.625 223.128,120.147 221.695 C 125.978 219.848,130.481 218.615,133.073 218.156 C 141.268 216.704,142.828 211.772,136.865 206.163 C 125.176 195.169,118.238 176.852,121.004 164.286 C 122.807 156.093,125.403 150.540,132.202 140.335 C 135.001 136.133,141.838 130.929,146.781 129.236 C 148.442 128.668,150.669 127.812,151.731 127.334 C 157.802 124.604,166.069 123.939,174.725 125.482 M237.281 141.761 C 238.131 142.553,238.016 143.590,237.078 143.590 C 236.267 143.590,235.165 142.502,235.165 141.701 C 235.165 140.798,236.281 140.829,237.281 141.761 M223.648 142.193 C 224.010 143.334,223.456 148.197,222.877 148.961 C 222.597 149.331,222.362 149.912,222.356 150.253 C 222.332 151.513,221.706 151.211,221.235 149.713 C 220.968 148.864,220.531 147.908,220.265 147.590 C 219.366 146.517,219.662 143.903,220.822 142.665 C 222.072 141.332,223.309 141.125,223.648 142.193 M20.780 143.763 C 22.419 145.668,21.276 149.391,18.632 150.758 C 15.299 152.481,11.365 146.135,14.011 143.305 C 15.282 141.945,19.460 142.227,20.780 143.763 M164.103 143.112 C 159.717 143.856,149.907 149.656,146.209 153.691 C 142.388 157.861,139.949 169.064,141.030 177.473 C 141.746 183.033,146.651 190.130,152.346 193.845 C 155.524 195.918,156.870 197.117,159.707 200.404 C 163.945 205.313,163.853 205.245,166.480 205.359 C 167.779 205.415,168.939 205.304,169.058 205.112 C 169.177 204.919,169.563 204.762,169.916 204.762 C 170.268 204.762,171.501 203.649,172.654 202.289 C 176.081 198.248,176.948 197.478,180.403 195.403 C 184.774 192.779,186.907 190.689,190.241 185.770 C 194.966 178.795,194.928 162.651,190.170 155.679 C 184.879 147.928,172.083 141.759,164.103 143.112 M100.669 145.789 C 102.721 147.500,104.089 153.449,102.894 155.474 C 101.990 157.005,99.141 157.523,99.516 156.088 C 99.636 155.631,99.253 154.955,98.383 154.085 C 97.661 153.363,97.070 152.519,97.070 152.210 C 97.070 151.245,96.394 151.597,96.213 152.656 C 96.119 153.210,96.091 152.756,96.152 151.648 C 96.434 146.507,98.427 143.921,100.669 145.789 M249.849 149.187 C 251.256 150.268,251.761 153.051,250.792 154.377 C 250.317 155.026,250.293 155.026,250.039 154.366 C 249.853 153.879,249.698 153.811,249.502 154.129 C 249.185 154.642,247.722 154.800,246.827 154.418 C 246.403 154.238,246.177 154.362,246.082 154.827 C 245.861 155.909,244.542 153.632,244.542 152.169 C 244.542 149.681,247.977 147.751,249.849 149.187 M223.645 154.600 C 224.124 155.129,224.587 155.287,225.202 155.133 C 226.560 154.792,228.205 156.912,228.205 159.002 C 228.205 161.563,231.884 162.807,232.168 160.342 L 232.284 159.329 233.403 159.976 C 235.903 161.422,236.796 164.021,235.354 165.659 C 234.038 167.154,232.628 166.676,231.607 164.389 C 231.026 163.089,228.657 161.394,226.627 160.825 C 223.868 160.053,222.353 157.938,222.346 154.853 C 222.344 153.652,222.721 153.579,223.645 154.600 M84.942 161.378 C 87.761 163.751,87.369 170.522,84.380 171.072 L 83.333 171.265 83.440 175.376 C 83.563 180.080,83.138 180.620,81.211 178.205 C 80.457 177.260,79.904 176.923,79.105 176.923 C 78.509 176.923,78.022 176.747,78.022 176.533 C 78.022 175.215,80.155 173.626,81.924 173.626 C 83.039 173.626,83.180 171.486,82.109 170.817 C 79.449 169.156,79.843 162.495,82.699 160.831 C 83.598 160.308,83.699 160.332,84.942 161.378 M154.579 162.823 C 154.579 163.586,153.437 164.105,152.665 163.692 C 151.908 163.287,151.790 161.544,152.473 160.859 C 152.981 160.348,154.579 161.838,154.579 162.823 M10.854 163.034 C 12.504 164.053,12.683 165.967,11.236 167.116 C 10.174 167.960,8.954 167.928,8.059 167.033 C 7.534 166.509,7.326 166.446,7.326 166.814 C 7.326 167.096,7.862 167.684,8.516 168.119 C 9.547 168.805,9.584 168.878,8.791 168.660 C 6.687 168.082,6.167 166.455,7.280 163.937 C 8.131 162.013,8.892 161.821,10.854 163.034 M312.611 163.993 C 313.156 164.538,313.694 165.448,313.808 166.016 C 313.921 166.584,314.158 167.137,314.333 167.245 C 314.893 167.591,314.675 168.219,314.075 167.989 C 313.401 167.730,312.511 168.487,312.727 169.134 C 312.902 169.658,311.103 171.429,310.397 171.429 C 310.130 171.429,309.540 170.925,309.084 170.309 C 308.547 169.582,308.029 169.249,307.608 169.359 C 305.926 169.799,307.689 164.377,309.524 163.468 C 310.888 162.792,311.517 162.899,312.611 163.993 M314.915 171.332 C 314.831 171.889,314.760 171.520,314.757 170.513 C 314.754 169.505,314.823 169.050,314.910 169.500 C 314.997 169.951,314.999 170.775,314.915 171.332 M232.444 172.436 C 232.937 174.664,233.433 175.885,233.920 176.072 C 234.202 176.180,234.433 176.622,234.434 177.054 C 234.436 177.486,234.654 178.255,234.919 178.763 C 236.090 181.007,236.278 182.051,235.512 182.051 C 234.778 182.051,234.546 182.585,235.124 182.942 C 236.383 183.720,236.347 190.518,235.080 191.127 C 233.046 192.106,231.165 189.451,231.099 185.507 C 231.052 182.684,230.692 181.296,230.204 182.055 C 229.671 182.884,229.404 179.232,229.742 175.738 C 230.098 172.061,231.879 169.885,232.444 172.436 M80.207 178.730 C 81.177 180.543,80.271 183.082,78.818 182.621 C 77.793 182.295,77.694 179.847,78.663 178.785 C 79.492 177.877,79.745 177.868,80.207 178.730 M77.063 181.179 C 78.082 182.787,78.821 186.083,78.161 186.078 C 77.432 186.073,75.474 181.887,75.463 180.311 C 75.455 179.088,75.885 179.322,77.063 181.179 M236.996 183.676 C 236.996 184.166,237.179 185.032,237.403 185.599 C 238.790 189.116,238.970 193.991,237.683 193.195 C 237.489 193.075,237.132 193.142,236.889 193.344 C 236.547 193.627,236.447 192.471,236.447 188.247 C 236.447 185.242,236.571 182.784,236.722 182.784 C 236.873 182.784,236.996 183.185,236.996 183.676 M11.921 191.009 C 12.971 192.058,13.150 194.588,12.259 195.766 C 11.743 196.448,11.722 196.449,11.722 195.792 C 11.722 193.370,9.563 191.188,9.486 193.532 L 9.448 194.689 9.082 193.308 C 8.296 190.347,9.933 189.021,11.921 191.009 M315.480 194.327 C 315.765 197.710,315.544 201.465,315.058 201.465 C 314.908 201.465,314.558 202.295,314.282 203.310 C 313.559 205.967,312.962 206.301,312.458 204.331 C 312.235 203.460,311.895 202.269,311.704 201.685 C 310.882 199.179,311.429 195.589,313.124 192.376 C 314.482 189.804,315.144 190.352,315.480 194.327 M245.055 203.424 C 245.055 205.854,244.882 207.194,244.458 208.044 L 243.861 209.240 242.810 206.979 C 241.995 205.227,241.758 204.187,241.758 202.359 L 241.758 200.000 243.407 200.000 L 245.055 200.000 245.055 203.424 M111.538 209.158 C 111.663 209.359,111.518 209.524,111.215 209.524 C 110.913 209.524,110.564 209.359,110.440 209.158 C 110.315 208.956,110.460 208.791,110.763 208.791 C 111.065 208.791,111.414 208.956,111.538 209.158 M73.672 210.586 C 74.883 211.566,74.737 213.541,73.255 216.230 C 72.207 218.133,72.019 218.303,71.481 217.843 C 71.150 217.559,70.591 217.225,70.238 217.100 C 69.886 216.975,69.592 216.662,69.585 216.403 C 69.578 216.124,69.358 216.220,69.040 216.640 C 68.240 217.698,67.979 217.076,68.482 215.306 C 68.727 214.443,69.014 213.288,69.119 212.739 C 69.583 210.328,71.963 209.202,73.672 210.586 M110.502 210.609 C 110.806 210.676,111.013 213.217,110.820 214.505 C 110.154 218.943,103.997 221.678,102.206 218.331 C 101.399 216.822,102.026 212.078,102.957 212.654 C 103.174 212.788,103.735 212.536,104.205 212.095 C 105.701 210.690,108.202 210.099,110.502 210.609 M264.587 216.976 C 264.954 217.107,265.555 217.053,265.922 216.856 C 267.211 216.166,268.387 219.208,267.576 221.137 C 266.008 224.867,264.240 224.476,263.851 220.312 C 263.727 218.980,263.403 217.667,263.131 217.396 C 262.328 216.593,262.463 215.487,263.278 216.188 C 263.631 216.491,264.220 216.845,264.587 216.976 M165.060 219.589 C 164.561 220.088,163.689 221.118,163.122 221.878 C 162.556 222.638,162.008 223.342,161.906 223.443 C 161.804 223.544,160.978 224.615,160.072 225.824 C 155.892 231.401,154.256 232.175,140.379 235.150 C 131.623 237.027,120.350 243.456,117.927 247.955 C 117.538 248.677,116.807 249.927,116.303 250.733 C 113.735 254.834,113.597 255.568,114.104 262.454 C 114.386 266.284,113.894 267.687,112.690 266.484 C 112.093 265.887,112.065 266.038,112.165 269.278 C 112.260 272.349,112.345 272.717,112.992 272.840 C 113.389 272.916,114.623 273.789,115.734 274.779 C 119.158 277.830,126.393 278.567,151.099 278.378 C 157.344 278.331,174.075 278.272,188.278 278.248 L 214.103 278.205 215.806 277.388 C 217.532 276.561,220.019 274.354,221.121 272.672 C 221.510 272.079,221.815 271.898,221.980 272.164 C 222.354 272.770,222.697 267.496,222.605 262.540 C 222.528 258.395,222.489 258.199,221.570 257.412 C 221.045 256.962,220.359 256.016,220.046 255.311 C 219.732 254.606,219.076 253.123,218.587 252.015 C 215.306 244.581,207.318 238.679,196.520 235.710 C 182.587 231.880,178.888 230.306,176.295 227.106 C 169.678 218.941,167.299 217.349,165.060 219.589 M15.042 219.427 C 16.141 220.015,16.006 222.160,14.822 222.936 C 13.194 224.003,10.205 221.712,11.175 220.142 C 11.763 219.191,13.872 218.801,15.042 219.427 M21.102 238.370 C 21.740 239.210,21.744 240.827,21.109 241.353 C 19.953 242.313,18.446 240.444,18.904 238.619 C 19.171 237.556,20.379 237.418,21.102 238.370 M158.582 240.463 C 159.763 241.073,160.255 241.977,159.553 242.246 C 159.292 242.346,158.974 242.952,158.846 243.592 C 158.048 247.579,152.381 247.949,152.381 244.015 C 152.381 243.412,152.198 242.857,151.974 242.782 C 151.368 242.580,153.225 240.937,154.637 240.425 C 156.309 239.820,157.358 239.830,158.582 240.463 M261.780 244.435 C 262.772 245.097,262.857 245.265,262.372 245.619 C 261.868 245.988,261.877 246.138,262.460 247.027 C 263.095 247.996,263.086 248.099,262.149 250.868 C 261.619 252.433,260.945 254.968,260.652 256.502 C 259.865 260.615,258.804 262.271,256.956 262.271 C 255.920 262.271,254.283 260.292,254.048 258.755 C 253.927 257.969,253.679 256.864,253.495 256.298 C 253.183 255.336,253.699 253.399,255.272 249.634 C 257.912 243.312,258.904 242.520,261.780 244.435 M136.186 247.076 C 136.316 247.975,135.213 249.494,134.928 248.810 C 134.823 248.558,134.257 248.352,133.669 248.352 C 132.121 248.352,132.372 247.246,134.076 246.557 C 135.345 246.045,136.063 246.221,136.186 247.076 M308.425 249.451 C 308.425 249.939,308.181 250.183,307.692 250.183 C 306.986 250.183,306.700 249.466,307.204 248.962 C 307.708 248.458,308.425 248.745,308.425 249.451 M164.840 255.689 C 165.093 256.300,165.183 256.917,165.039 257.061 C 164.896 257.204,165.480 257.493,166.338 257.701 L 167.897 258.081 165.997 259.300 C 164.441 260.299,163.866 260.479,162.818 260.296 C 162.114 260.174,160.989 259.976,160.318 259.857 C 159.381 259.691,158.965 259.350,158.531 258.392 L 157.965 257.143 159.538 257.143 C 160.454 257.143,161.188 257.334,161.296 257.601 C 161.397 257.853,161.494 257.473,161.510 256.758 C 161.563 254.354,163.967 253.583,164.840 255.689 M92.883 259.864 C 94.553 261.533,91.746 266.274,89.581 265.443 C 88.454 265.011,88.099 263.506,88.867 262.418 C 89.249 261.878,89.725 261.174,89.927 260.854 C 90.860 259.374,92.008 258.989,92.883 259.864 M323.168 261.804 C 323.521 261.906,323.810 262.291,323.810 262.658 C 323.810 263.026,323.974 263.429,324.176 263.553 C 324.377 263.678,324.542 264.337,324.542 265.018 C 324.542 265.700,324.377 266.359,324.176 266.484 C 323.974 266.608,323.808 266.989,323.807 267.329 C 323.806 267.670,323.298 268.237,322.679 268.590 C 321.449 269.289,319.780 269.448,319.780 268.864 C 319.780 268.663,319.551 268.498,319.270 268.498 C 318.539 268.498,318.330 267.720,318.068 264.032 L 317.836 260.764 318.808 261.008 C 319.427 261.163,319.780 261.102,319.780 260.841 C 319.780 260.570,320.248 260.632,321.154 261.024 C 321.909 261.351,322.816 261.702,323.168 261.804 M29.662 268.590 C 29.667 269.547,29.505 270.330,29.304 270.330 C 29.103 270.330,28.938 270.568,28.938 270.859 C 28.938 272.003,27.292 273.386,26.244 273.123 C 22.749 272.246,23.305 268.409,27.289 265.899 C 28.763 264.971,29.650 265.977,29.662 268.590 M86.899 272.344 C 87.284 272.868,87.244 275.824,86.852 275.824 C 86.672 275.824,86.430 275.577,86.314 275.275 C 85.998 274.449,85.348 274.614,85.348 275.521 C 85.348 277.342,82.597 278.464,81.684 277.015 C 81.350 276.485,81.304 276.581,81.419 277.564 C 81.591 279.039,81.486 279.047,80.623 277.628 C 79.871 276.393,80.208 274.528,81.306 273.839 C 81.602 273.653,82.240 273.105,82.725 272.620 C 84.268 271.076,85.889 270.970,86.899 272.344 M35.049 302.094 C 35.693 302.902,34.912 304.396,33.846 304.396 C 33.386 304.396,32.908 304.560,32.784 304.762 C 32.659 304.963,32.223 305.128,31.814 305.128 C 31.116 305.128,31.131 305.057,32.049 303.965 C 32.653 303.248,32.970 302.500,32.877 302.013 C 32.699 301.079,34.287 301.138,35.049 302.094 M30.241 302.359 C 31.626 303.388,29.626 305.254,28.046 304.408 C 26.892 303.791,26.869 303.429,27.930 302.543 C 28.933 301.707,29.321 301.676,30.241 302.359 M15.201 310.806 C 15.201 312.090,15.099 312.267,14.377 312.242 C 13.763 312.220,13.553 312.419,13.553 313.021 C 13.553 313.466,13.306 314.035,13.004 314.286 C 12.701 314.537,12.454 314.941,12.454 315.184 C 12.454 316.144,10.694 316.662,9.894 315.937 C 8.312 314.506,9.474 311.649,12.351 309.896 C 14.190 308.776,15.201 309.099,15.201 310.806 M278.000 333.123 C 279.448 334.868,277.329 338.397,275.663 337.015 C 275.085 336.535,274.835 333.346,275.336 332.845 C 275.777 332.404,277.557 332.590,278.000 333.123 M250.331 364.326 C 250.497 364.759,250.401 364.857,249.974 364.693 C 249.653 364.570,248.704 364.457,247.864 364.443 C 246.675 364.423,246.499 364.348,247.070 364.103 C 248.328 363.562,250.084 363.682,250.331 364.326 M59.974 364.370 C 59.214 364.449,58.060 364.448,57.409 364.367 C 56.759 364.286,57.381 364.221,58.791 364.223 C 60.201 364.224,60.734 364.291,59.974 364.370 " stroke="none" fill="#120d48" fill-rule="evenodd"></path><path id="path2" d="M365.807 0.536 C 365.658 0.922,365.980 1.150,366.958 1.353 L 368.315 1.634 366.667 1.861 L 365.018 2.088 366.667 2.186 C 368.208 2.278,368.244 2.303,367.216 2.564 C 366.243 2.812,366.327 2.852,367.949 2.915 L 369.780 2.987 368.315 3.470 C 366.944 3.922,367.155 3.954,371.612 3.979 C 375.874 4.003,376.299 3.950,375.663 3.468 C 374.984 2.955,375.001 2.929,376.029 2.894 C 377.095 2.858,377.097 2.854,376.190 2.564 L 375.275 2.271 376.190 2.205 C 376.694 2.169,376.900 2.057,376.648 1.955 C 375.998 1.693,376.080 1.099,376.766 1.099 C 377.278 1.099,377.281 1.038,376.792 0.549 C 375.995 -0.248,366.112 -0.260,365.807 0.536 M370.611 4.661 C 371.269 4.743,372.258 4.741,372.809 4.657 C 373.359 4.574,372.821 4.507,371.612 4.509 C 370.403 4.511,369.953 4.580,370.611 4.661 M305.311 7.977 C 303.025 9.290,303.272 10.265,305.785 9.851 C 306.733 9.695,307.715 9.558,307.967 9.546 C 308.227 9.533,308.425 9.048,308.425 8.425 C 308.425 7.106,307.147 6.922,305.311 7.977 M348.077 16.013 C 348.717 16.110,349.084 16.391,349.083 16.783 C 349.083 17.320,349.464 17.384,352.042 17.279 C 354.495 17.179,354.965 17.064,354.790 16.608 C 354.674 16.305,354.579 15.988,354.579 15.904 C 354.579 15.820,352.889 15.776,350.824 15.806 C 348.759 15.836,347.523 15.929,348.077 16.013 M358.974 18.012 C 358.974 18.179,359.469 18.315,360.073 18.315 C 360.678 18.315,361.172 18.251,361.172 18.173 C 361.172 18.096,360.678 17.959,360.073 17.871 C 359.469 17.782,358.974 17.846,358.974 18.012 M363.736 20.147 C 363.736 20.348,363.426 20.513,363.046 20.513 C 362.607 20.513,362.295 20.835,362.187 21.400 C 362.024 22.254,362.050 22.266,362.877 21.724 C 363.679 21.198,363.736 21.209,363.736 21.891 C 363.736 22.292,363.984 22.826,364.286 23.077 C 364.875 23.566,365.106 21.645,364.613 20.360 C 364.368 19.721,363.736 19.567,363.736 20.147 M318.315 21.504 C 316.159 22.292,315.246 25.515,316.924 26.413 C 317.413 26.675,317.777 26.706,317.849 26.491 C 317.993 26.056,320.147 26.329,320.147 26.782 C 320.147 26.960,320.321 27.106,320.534 27.106 C 320.748 27.106,320.831 26.959,320.720 26.778 C 320.608 26.598,320.801 26.341,321.149 26.208 C 321.497 26.075,321.838 26.137,321.908 26.347 C 322.089 26.888,324.060 25.810,324.544 24.905 C 325.669 22.802,321.296 20.414,318.315 21.504 M294.248 25.366 C 293.452 27.112,294.857 28.534,296.125 27.266 C 296.640 26.751,296.641 26.584,296.142 25.618 C 295.477 24.333,294.762 24.238,294.248 25.366 M293.052 28.938 C 293.052 29.240,293.211 29.734,293.407 30.037 C 293.722 30.525,293.762 30.525,293.762 30.037 C 293.762 29.734,293.602 29.240,293.407 28.938 C 293.091 28.449,293.052 28.449,293.052 28.938 M369.504 39.652 C 369.029 41.065,370.456 42.133,372.344 41.777 C 374.106 41.446,374.063 40.082,372.275 39.586 C 370.439 39.076,369.692 39.094,369.504 39.652 M240.036 45.204 C 238.035 45.931,238.244 46.154,240.925 46.154 C 243.714 46.154,243.979 46.342,243.933 48.290 C 243.912 49.180,243.882 49.200,243.603 48.509 C 242.369 45.461,237.354 46.902,235.902 50.721 C 235.312 52.272,236.607 54.185,238.260 54.204 C 238.816 54.211,238.877 54.310,238.535 54.652 C 237.213 55.973,238.944 56.023,240.883 54.720 C 244.976 51.967,246.348 48.040,243.928 46.003 C 243.308 45.482,242.662 45.055,242.493 45.055 C 242.323 45.055,241.965 44.993,241.697 44.917 C 241.428 44.841,240.681 44.970,240.036 45.204 M218.461 51.364 C 214.843 54.540,220.571 59.294,224.359 56.259 L 225.458 55.379 224.454 55.570 C 223.902 55.676,222.707 55.650,221.798 55.514 L 220.147 55.266 220.147 53.457 L 220.147 51.648 221.502 51.648 C 223.076 51.648,222.787 51.097,220.934 50.565 C 219.893 50.267,219.605 50.359,218.461 51.364 M110.989 56.227 C 110.989 56.529,111.256 56.777,111.583 56.777 C 112.070 56.777,112.095 56.677,111.722 56.227 C 111.471 55.925,111.203 55.678,111.127 55.678 C 111.051 55.678,110.989 55.925,110.989 56.227 M148.116 59.004 C 146.009 60.378,145.788 60.619,145.799 61.528 C 145.822 63.308,147.587 64.469,150.272 64.469 C 151.105 64.469,151.282 64.308,151.282 63.553 C 151.282 62.983,151.490 62.637,151.832 62.637 C 152.137 62.637,152.381 62.312,152.381 61.905 C 152.381 61.498,152.625 61.172,152.930 61.172 C 153.233 61.172,153.480 60.990,153.480 60.767 C 153.480 60.544,153.727 60.456,154.029 60.572 C 154.331 60.688,154.932 60.652,155.364 60.492 C 156.045 60.240,155.887 60.099,154.174 59.434 C 151.286 58.314,149.383 58.179,148.116 59.004 M245.421 65.568 C 245.421 65.769,245.843 65.934,246.359 65.934 C 246.890 65.934,247.198 65.776,247.070 65.568 C 246.945 65.366,246.523 65.201,246.132 65.201 C 245.741 65.201,245.421 65.366,245.421 65.568 M218.132 68.162 C 217.168 68.827,217.141 68.889,217.912 68.667 L 218.791 68.414 218.004 69.520 C 216.723 71.318,217.199 72.547,219.817 74.199 C 224.789 77.337,228.043 74.377,224.223 70.191 C 223.332 69.215,223.322 69.168,224.084 69.562 C 225.550 70.321,224.958 69.612,223.188 68.490 C 221.170 67.210,219.654 67.112,218.132 68.162 M221.612 68.132 C 221.612 68.333,221.158 68.496,220.604 68.493 C 219.819 68.488,219.718 68.409,220.147 68.132 C 220.863 67.669,221.612 67.669,221.612 68.132 M105.643 75.232 C 105.334 76.039,105.776 76.557,106.777 76.557 C 107.729 76.557,108.328 75.934,107.825 75.467 C 107.116 74.809,105.858 74.673,105.643 75.232 M282.662 84.860 C 282.008 85.513,282.443 87.971,283.364 88.824 C 284.270 89.664,284.904 89.659,286.369 88.801 C 286.570 88.684,285.595 86.813,285.334 86.813 C 285.189 86.813,284.866 86.319,284.615 85.714 C 284.193 84.694,283.243 84.278,282.662 84.860 M299.767 85.529 C 299.651 85.830,299.399 85.979,299.206 85.859 C 299.013 85.740,298.577 85.885,298.237 86.181 C 297.447 86.870,295.344 87.846,293.332 88.458 C 292.467 88.721,291.799 89.116,291.848 89.336 C 291.898 89.555,291.379 89.969,290.695 90.254 C 289.241 90.862,288.695 91.671,288.925 92.876 C 289.337 95.029,292.523 95.419,296.154 93.761 C 297.161 93.301,298.235 92.954,298.539 92.991 C 299.573 93.114,301.099 90.169,301.099 88.052 C 301.099 85.343,300.369 83.960,299.767 85.529 M51.788 90.642 C 51.675 90.934,51.690 91.346,51.821 91.558 C 52.247 92.248,52.747 91.961,52.747 91.026 C 52.747 90.033,52.118 89.781,51.788 90.642 M272.996 98.924 C 274.618 99.998,275.246 100.641,277.951 103.993 C 279.387 105.773,279.853 105.877,279.853 104.417 C 279.853 103.825,280.025 103.234,280.235 103.104 C 281.083 102.580,279.499 100.191,278.527 100.530 C 278.302 100.609,277.513 100.176,276.775 99.567 C 275.815 98.776,275.194 98.522,274.589 98.673 C 274.108 98.794,273.444 98.657,273.045 98.355 C 272.659 98.064,272.110 97.820,271.824 97.814 C 271.537 97.807,272.065 98.307,272.996 98.924 M367.562 103.688 C 366.061 104.124,364.892 105.437,364.635 106.977 L 364.425 108.242 364.983 107.326 L 365.542 106.410 365.555 107.336 C 365.589 109.762,368.440 111.373,369.833 109.753 C 371.181 108.186,370.775 105.069,369.156 104.555 C 368.602 104.379,368.548 104.228,368.890 103.815 C 369.371 103.236,369.181 103.218,367.562 103.688 M183.974 106.605 C 182.887 107.042,182.926 108.194,184.053 108.932 C 186.005 110.211,190.256 109.190,189.642 107.589 C 189.231 106.518,185.711 105.907,183.974 106.605 M48.830 107.857 L 47.802 108.754 48.718 108.523 C 49.590 108.303,49.603 108.323,48.993 108.934 C 47.245 110.685,48.177 113.187,50.577 113.187 C 52.714 113.187,54.631 110.279,53.114 109.341 C 52.534 108.982,52.688 108.324,53.297 108.557 C 54.063 108.851,53.982 108.580,53.044 107.707 C 51.936 106.674,50.110 106.739,48.830 107.857 M287.443 107.184 C 286.811 107.817,287.227 109.547,288.266 110.610 C 289.954 112.337,292.266 112.215,294.182 110.300 C 295.660 108.822,296.176 107.336,294.979 108.006 C 294.527 108.259,294.236 108.196,293.932 107.780 C 293.676 107.431,293.056 107.234,292.360 107.280 C 289.834 107.448,289.527 107.440,288.634 107.185 C 288.124 107.040,287.588 107.039,287.443 107.184 M145.586 112.447 C 141.568 113.287,135.668 117.197,135.978 118.815 C 136.133 119.629,136.017 119.755,135.019 119.854 L 133.883 119.965 134.997 120.575 C 136.437 121.364,141.470 122.061,143.589 121.766 C 145.433 121.509,150.986 118.929,150.079 118.751 C 149.656 118.668,149.895 118.277,150.958 117.317 C 154.196 114.392,150.839 111.349,145.586 112.447 M152.999 116.412 C 151.609 117.863,151.777 118.170,153.297 116.957 C 154.535 115.969,154.901 115.385,154.281 115.385 C 154.117 115.385,153.540 115.847,152.999 116.412 M210.267 123.247 C 209.755 123.865,210.082 126.589,210.715 126.980 C 210.932 127.115,211.460 126.786,211.888 126.250 C 212.315 125.713,212.865 125.275,213.109 125.275 C 213.683 125.275,213.669 125.096,212.994 123.791 C 212.376 122.595,211.031 122.327,210.267 123.247 M126.640 125.005 C 124.670 126.131,124.850 127.839,126.939 127.839 C 127.625 127.839,128.938 126.380,128.938 125.617 C 128.938 124.400,128.092 124.175,126.640 125.005 M235.165 141.701 C 235.165 142.502,236.267 143.590,237.078 143.590 C 238.016 143.590,238.131 142.553,237.281 141.761 C 236.281 140.829,235.165 140.798,235.165 141.701 M220.822 142.665 C 219.662 143.903,219.366 146.517,220.265 147.590 C 220.531 147.908,220.968 148.864,221.235 149.713 C 221.706 151.211,222.332 151.513,222.356 150.253 C 222.362 149.912,222.597 149.331,222.877 148.961 C 223.456 148.197,224.010 143.334,223.648 142.193 C 223.309 141.125,222.072 141.332,220.822 142.665 M14.011 143.305 C 11.365 146.135,15.299 152.481,18.632 150.758 C 21.276 149.391,22.419 145.668,20.780 143.763 C 19.460 142.227,15.282 141.945,14.011 143.305 M97.685 146.245 C 96.653 147.629,96.305 148.856,96.152 151.648 C 96.091 152.756,96.119 153.210,96.213 152.656 C 96.394 151.597,97.070 151.245,97.070 152.210 C 97.070 152.519,97.661 153.363,98.383 154.085 C 99.253 154.955,99.636 155.631,99.516 156.088 C 99.141 157.523,101.990 157.005,102.894 155.474 C 103.900 153.769,103.868 153.138,102.592 149.529 C 101.026 145.101,99.366 143.991,97.685 146.245 M246.703 149.064 C 244.610 149.921,243.922 152.453,245.244 154.440 C 245.837 155.331,245.967 155.391,246.082 154.827 C 246.177 154.362,246.403 154.238,246.827 154.418 C 247.722 154.800,249.185 154.642,249.502 154.129 C 249.698 153.811,249.853 153.879,250.039 154.366 C 250.433 155.392,251.282 154.097,251.282 152.470 C 251.282 149.583,249.207 148.039,246.703 149.064 M222.346 154.853 C 222.353 157.938,223.868 160.053,226.627 160.825 C 228.657 161.394,231.026 163.089,231.607 164.389 C 232.628 166.676,234.038 167.154,235.354 165.659 C 236.796 164.021,235.903 161.422,233.403 159.976 L 232.284 159.329 232.168 160.342 C 231.884 162.807,228.205 161.563,228.205 159.002 C 228.205 156.912,226.560 154.792,225.202 155.133 C 224.587 155.287,224.124 155.129,223.645 154.600 C 222.721 153.579,222.344 153.652,222.346 154.853 M82.699 160.831 C 79.843 162.495,79.449 169.156,82.109 170.817 C 83.180 171.486,83.039 173.626,81.924 173.626 C 80.155 173.626,78.022 175.215,78.022 176.533 C 78.022 176.747,78.509 176.923,79.105 176.923 C 79.904 176.923,80.457 177.260,81.211 178.205 C 83.138 180.620,83.563 180.080,83.440 175.376 L 83.333 171.265 84.380 171.072 C 86.194 170.738,87.495 166.877,86.673 164.269 C 85.820 161.564,84.058 160.040,82.699 160.831 M152.473 160.859 C 151.234 162.102,152.486 164.504,153.947 163.687 C 154.800 163.210,154.742 162.501,153.755 161.356 C 153.094 160.589,152.839 160.491,152.473 160.859 M7.280 163.937 C 6.167 166.455,6.687 168.082,8.791 168.660 C 9.584 168.878,9.547 168.805,8.516 168.119 C 7.862 167.684,7.326 167.096,7.326 166.814 C 7.326 166.446,7.534 166.509,8.059 167.033 C 8.954 167.928,10.174 167.960,11.236 167.116 C 12.683 165.967,12.504 164.053,10.854 163.034 C 8.892 161.821,8.131 162.013,7.280 163.937 M309.524 163.468 C 307.689 164.377,305.926 169.799,307.608 169.359 C 308.029 169.249,308.547 169.582,309.084 170.309 C 309.540 170.925,310.130 171.429,310.397 171.429 C 311.103 171.429,312.902 169.658,312.727 169.134 C 312.511 168.487,313.401 167.730,314.075 167.989 C 314.675 168.219,314.893 167.591,314.333 167.245 C 314.158 167.137,313.921 166.584,313.808 166.016 C 313.361 163.785,311.326 162.575,309.524 163.468 M314.757 170.513 C 314.760 171.520,314.831 171.889,314.915 171.332 C 314.999 170.775,314.997 169.951,314.910 169.500 C 314.823 169.050,314.754 169.505,314.757 170.513 M230.820 172.117 C 230.188 172.665,229.968 173.406,229.742 175.738 C 229.404 179.232,229.671 182.884,230.204 182.055 C 230.692 181.296,231.052 182.684,231.099 185.507 C 231.165 189.451,233.046 192.106,235.080 191.127 C 236.347 190.518,236.383 183.720,235.124 182.942 C 234.546 182.585,234.778 182.051,235.512 182.051 C 236.278 182.051,236.090 181.007,234.919 178.763 C 234.654 178.255,234.436 177.486,234.434 177.054 C 234.433 176.622,234.202 176.180,233.920 176.072 C 233.433 175.885,232.937 174.664,232.444 172.436 C 232.180 171.247,231.889 171.190,230.820 172.117 M78.663 178.785 C 77.694 179.847,77.793 182.295,78.818 182.621 C 80.271 183.082,81.177 180.543,80.207 178.730 C 79.745 177.868,79.492 177.877,78.663 178.785 M75.463 180.311 C 75.474 181.887,77.432 186.073,78.161 186.078 C 78.821 186.083,78.082 182.787,77.063 181.179 C 75.885 179.322,75.455 179.088,75.463 180.311 M236.447 188.247 C 236.447 192.471,236.547 193.627,236.889 193.344 C 237.132 193.142,237.489 193.075,237.683 193.195 C 238.970 193.991,238.790 189.116,237.403 185.599 C 237.179 185.032,236.996 184.166,236.996 183.676 C 236.996 183.185,236.873 182.784,236.722 182.784 C 236.571 182.784,236.447 185.242,236.447 188.247 M8.943 191.019 C 8.818 191.519,8.880 192.549,9.082 193.308 L 9.448 194.689 9.486 193.532 C 9.563 191.188,11.722 193.370,11.722 195.792 C 11.722 196.449,11.743 196.448,12.259 195.766 C 13.150 194.588,12.971 192.058,11.921 191.009 C 10.716 189.804,9.247 189.808,8.943 191.019 M313.124 192.376 C 311.429 195.589,310.882 199.179,311.704 201.685 C 311.895 202.269,312.235 203.460,312.458 204.331 C 312.962 206.301,313.559 205.967,314.282 203.310 C 314.558 202.295,314.908 201.465,315.058 201.465 C 315.544 201.465,315.765 197.710,315.480 194.327 C 315.144 190.352,314.482 189.804,313.124 192.376 M241.758 202.359 C 241.758 204.187,241.995 205.227,242.810 206.979 L 243.861 209.240 244.458 208.044 C 244.882 207.194,245.055 205.854,245.055 203.424 L 245.055 200.000 243.407 200.000 L 241.758 200.000 241.758 202.359 M110.440 209.158 C 110.564 209.359,110.913 209.524,111.215 209.524 C 111.518 209.524,111.663 209.359,111.538 209.158 C 111.414 208.956,111.065 208.791,110.763 208.791 C 110.460 208.791,110.315 208.956,110.440 209.158 M70.169 210.816 C 69.697 211.325,69.225 212.191,69.119 212.739 C 69.014 213.288,68.727 214.443,68.482 215.306 C 67.979 217.076,68.240 217.698,69.040 216.640 C 69.358 216.220,69.578 216.124,69.585 216.403 C 69.592 216.662,69.886 216.975,70.238 217.100 C 70.591 217.225,71.150 217.559,71.481 217.843 C 72.272 218.519,74.399 214.865,74.479 212.692 C 74.574 210.140,71.882 208.968,70.169 210.816 M106.467 210.782 C 105.693 211.063,104.674 211.654,104.205 212.095 C 103.735 212.536,103.174 212.788,102.957 212.654 C 102.026 212.078,101.399 216.822,102.206 218.331 C 103.997 221.678,110.154 218.943,110.820 214.505 C 111.013 213.217,110.806 210.676,110.502 210.609 C 109.167 210.313,107.569 210.382,106.467 210.782 M262.637 216.270 C 262.637 216.618,262.860 217.124,263.131 217.396 C 263.403 217.667,263.727 218.980,263.851 220.312 C 264.240 224.476,266.008 224.867,267.576 221.137 C 268.387 219.208,267.211 216.166,265.922 216.856 C 265.179 217.254,264.245 217.018,263.278 216.188 C 262.703 215.694,262.637 215.702,262.637 216.270 M12.217 219.411 C 10.475 220.114,10.667 221.808,12.608 222.853 C 14.363 223.797,15.751 223.008,15.751 221.067 C 15.751 219.279,14.268 218.584,12.217 219.411 M18.904 238.619 C 18.446 240.444,19.953 242.313,21.109 241.353 C 21.744 240.827,21.740 239.210,21.102 238.370 C 20.379 237.418,19.171 237.556,18.904 238.619 M154.637 240.425 C 153.225 240.937,151.368 242.580,151.974 242.782 C 152.198 242.857,152.381 243.412,152.381 244.015 C 152.381 247.949,158.048 247.579,158.846 243.592 C 158.974 242.952,159.292 242.346,159.553 242.246 C 160.770 241.779,158.430 239.897,156.703 239.955 C 156.240 239.970,155.310 240.182,154.637 240.425 M258.180 244.229 C 256.204 246.361,252.972 254.687,253.495 256.298 C 253.679 256.864,253.927 257.969,254.048 258.755 C 254.283 260.292,255.920 262.271,256.956 262.271 C 258.804 262.271,259.865 260.615,260.652 256.502 C 260.945 254.968,261.619 252.433,262.149 250.868 C 263.086 248.099,263.095 247.996,262.460 247.027 C 261.877 246.138,261.868 245.988,262.372 245.619 C 262.857 245.265,262.772 245.097,261.780 244.435 C 259.841 243.144,259.219 243.108,258.180 244.229 M134.076 246.557 C 132.372 247.246,132.121 248.352,133.669 248.352 C 134.257 248.352,134.823 248.558,134.928 248.810 C 135.213 249.494,136.316 247.975,136.186 247.076 C 136.063 246.221,135.345 246.045,134.076 246.557 M307.204 248.962 C 306.700 249.466,306.986 250.183,307.692 250.183 C 308.181 250.183,308.425 249.939,308.425 249.451 C 308.425 248.745,307.708 248.458,307.204 248.962 M161.978 255.018 C 161.736 255.260,161.525 256.043,161.510 256.758 C 161.494 257.473,161.397 257.853,161.296 257.601 C 161.188 257.334,160.454 257.143,159.538 257.143 L 157.965 257.143 158.531 258.392 C 158.965 259.350,159.381 259.691,160.318 259.857 C 160.989 259.976,162.114 260.174,162.818 260.296 C 163.866 260.479,164.441 260.299,165.997 259.300 L 167.897 258.081 166.338 257.701 C 165.480 257.493,164.896 257.204,165.039 257.061 C 165.183 256.917,165.093 256.300,164.840 255.689 C 164.345 254.494,162.852 254.144,161.978 255.018 M90.842 259.819 C 90.540 260.069,90.128 260.535,89.927 260.854 C 89.725 261.174,89.249 261.878,88.867 262.418 C 88.297 263.226,88.248 263.561,88.590 264.311 C 89.413 266.118,91.362 265.804,92.673 263.652 C 94.235 261.091,92.838 258.167,90.842 259.819 M319.780 260.841 C 319.780 261.102,319.427 261.163,318.808 261.008 L 317.836 260.764 318.068 264.032 C 318.330 267.720,318.539 268.498,319.270 268.498 C 319.551 268.498,319.780 268.663,319.780 268.864 C 319.780 269.448,321.449 269.289,322.679 268.590 C 323.298 268.237,323.806 267.670,323.807 267.329 C 323.808 266.989,323.974 266.608,324.176 266.484 C 324.377 266.359,324.542 265.700,324.542 265.018 C 324.542 264.337,324.377 263.678,324.176 263.553 C 323.974 263.429,323.810 263.026,323.810 262.658 C 323.810 262.291,323.521 261.906,323.168 261.804 C 322.816 261.702,321.909 261.351,321.154 261.024 C 320.248 260.632,319.780 260.570,319.780 260.841 M27.289 265.899 C 23.305 268.409,22.749 272.246,26.244 273.123 C 27.292 273.386,28.938 272.003,28.938 270.859 C 28.938 270.568,29.103 270.330,29.304 270.330 C 29.934 270.330,29.710 266.922,29.021 266.029 C 28.392 265.212,28.382 265.211,27.289 265.899 M84.381 271.451 C 83.955 271.609,83.210 272.135,82.725 272.620 C 82.240 273.105,81.602 273.653,81.306 273.839 C 80.208 274.528,79.871 276.393,80.623 277.628 C 81.486 279.047,81.591 279.039,81.419 277.564 C 81.304 276.581,81.350 276.485,81.684 277.015 C 82.597 278.464,85.348 277.342,85.348 275.521 C 85.348 274.614,85.998 274.449,86.314 275.275 C 86.723 276.340,87.179 275.806,87.174 274.267 C 87.166 272.072,85.968 270.864,84.381 271.451 M32.877 302.013 C 32.970 302.500,32.653 303.248,32.049 303.965 C 31.131 305.057,31.116 305.128,31.814 305.128 C 32.223 305.128,32.659 304.963,32.784 304.762 C 32.908 304.560,33.386 304.396,33.846 304.396 C 34.912 304.396,35.693 302.902,35.049 302.094 C 34.287 301.138,32.699 301.079,32.877 302.013 M27.930 302.543 C 26.869 303.429,26.892 303.791,28.046 304.408 C 29.626 305.254,31.626 303.388,30.241 302.359 C 29.321 301.676,28.933 301.707,27.930 302.543 M12.351 309.896 C 9.474 311.649,8.312 314.506,9.894 315.937 C 10.694 316.662,12.454 316.144,12.454 315.184 C 12.454 314.941,12.701 314.537,13.004 314.286 C 13.306 314.035,13.553 313.466,13.553 313.021 C 13.553 312.419,13.763 312.220,14.377 312.242 C 15.099 312.267,15.201 312.090,15.201 310.806 C 15.201 309.099,14.190 308.776,12.351 309.896 M275.336 332.845 C 274.835 333.346,275.085 336.535,275.663 337.015 C 277.329 338.397,279.448 334.868,278.000 333.123 C 277.557 332.590,275.777 332.404,275.336 332.845 M0.035 336.538 C 0.008 338.611,0.115 339.194,0.523 339.194 C 0.810 339.194,1.121 339.483,1.213 339.835 C 1.354 340.377,1.388 340.362,1.428 339.744 C 1.468 339.145,1.539 339.110,1.817 339.550 C 2.311 340.330,2.711 339.736,2.711 338.223 C 2.711 337.438,2.473 336.737,2.119 336.478 C 1.794 336.240,1.456 335.559,1.368 334.964 C 1.254 334.190,1.181 334.402,1.110 335.714 L 1.012 337.546 0.541 335.714 L 0.070 333.883 0.035 336.538 M183.883 361.074 C 183.379 361.167,182.835 361.474,182.674 361.757 C 182.506 362.052,181.727 362.296,180.843 362.330 C 179.492 362.381,179.450 362.406,180.495 362.536 C 182.212 362.749,181.959 363.361,180.128 363.422 L 178.571 363.474 180.037 363.736 C 181.366 363.974,181.264 364.010,178.938 364.119 L 176.374 364.239 179.487 364.469 C 181.200 364.595,181.921 364.729,181.090 364.767 C 178.528 364.883,177.323 365.230,177.539 365.791 C 177.838 366.571,195.238 366.544,195.238 365.764 C 195.238 365.393,194.641 365.145,193.315 364.964 C 191.716 364.745,191.546 364.657,192.308 364.438 C 192.811 364.294,192.976 364.137,192.674 364.091 C 192.372 364.044,192.701 363.885,193.407 363.736 C 194.482 363.510,194.276 363.451,192.125 363.371 L 189.560 363.276 191.758 362.813 C 193.943 362.354,193.924 362.350,188.462 362.239 L 182.967 362.128 186.813 361.925 C 190.549 361.727,190.617 361.709,189.194 361.266 C 187.753 360.817,185.684 360.743,183.883 361.074 M247.070 364.103 C 246.499 364.348,246.675 364.423,247.864 364.443 C 248.704 364.457,249.653 364.570,249.974 364.693 C 250.401 364.857,250.497 364.759,250.331 364.326 C 250.084 363.682,248.328 363.562,247.070 364.103 M57.409 364.367 C 58.060 364.448,59.214 364.449,59.974 364.370 C 60.734 364.291,60.201 364.224,58.791 364.223 C 57.381 364.221,56.759 364.286,57.409 364.367 M18.773 365.078 C 17.327 365.661,18.428 366.300,20.879 366.300 C 23.199 366.300,23.443 366.231,23.443 365.568 C 23.443 364.844,20.197 364.503,18.773 365.078 M246.520 365.703 C 246.520 366.183,246.916 366.300,248.535 366.300 C 249.643 366.300,250.549 366.136,250.549 365.934 C 250.549 365.733,250.261 365.566,249.908 365.564 C 249.556 365.562,248.649 365.458,247.894 365.333 C 246.775 365.148,246.520 365.217,246.520 365.703 " stroke="none" fill="#120e54" fill-rule="evenodd"></path><path id="path3" d="M320.277 34.642 C 313.751 35.738,306.791 38.532,300.818 42.454 C 290.647 49.133,290.043 52.990,297.786 61.818 C 303.907 68.796,306.545 69.150,314.961 64.123 C 330.401 54.901,342.413 58.613,339.921 71.836 C 338.753 78.035,332.992 85.422,317.533 100.544 C 298.112 119.541,293.114 124.621,292.218 126.275 C 289.743 130.845,289.827 141.258,292.361 144.144 C 294.696 146.803,293.158 146.703,331.685 146.703 L 366.117 146.703 367.876 145.830 C 374.482 142.550,374.382 126.480,367.733 122.711 L 366.117 121.795 349.695 121.612 C 328.681 121.377,329.316 121.829,338.218 113.444 C 364.212 88.960,368.609 82.094,368.650 65.934 C 368.682 53.104,363.978 44.963,352.862 38.614 C 345.627 34.481,331.492 32.758,320.277 34.642 M343.247 39.289 C 362.414 44.361,370.227 62.941,360.997 81.502 C 357.464 88.605,351.755 95.213,339.243 106.680 C 325.261 119.494,323.763 121.259,324.851 123.646 C 325.810 125.751,326.320 125.807,346.337 126.007 C 369.513 126.239,368.358 125.749,368.073 135.227 C 367.826 143.409,371.386 142.651,332.601 142.783 C 297.573 142.903,297.923 142.916,296.222 141.396 L 295.055 140.353 295.055 135.286 C 295.055 128.010,293.864 129.630,313.196 110.622 C 340.687 83.592,344.461 78.455,344.412 68.132 C 344.345 53.926,329.167 50.466,312.298 60.810 C 306.862 64.144,305.250 63.987,301.526 59.760 C 295.059 52.419,295.351 50.824,304.194 45.221 C 314.425 38.738,331.411 36.158,343.247 39.289 M155.128 73.477 C 99.089 78.967,53.839 114.140,36.063 166.027 C 22.533 205.520,27.705 249.466,49.997 284.432 C 55.355 292.837,55.354 292.720,50.112 300.631 C 48.273 303.407,45.501 307.656,43.953 310.073 C 42.405 312.491,39.108 317.601,36.628 321.429 C 30.496 330.890,29.853 332.298,29.853 336.264 C 29.853 342.634,33.821 347.005,40.477 347.967 C 43.877 348.458,163.808 348.468,173.909 347.978 C 213.952 346.035,253.625 324.503,277.457 291.778 C 290.900 273.321,300.105 249.480,302.781 226.192 C 303.539 219.598,303.319 197.282,302.447 192.308 C 302.146 190.595,301.628 187.628,301.295 185.714 C 298.545 169.916,291.771 152.222,283.511 139.262 C 259.482 101.557,227.467 80.711,183.516 74.156 C 179.843 73.608,158.904 73.107,155.128 73.477 M181.563 78.196 C 224.567 84.088,256.630 104.567,279.557 140.786 C 312.169 192.304,303.576 263.544,259.668 305.683 C 236.361 328.052,210.655 339.957,177.656 343.666 C 172.911 344.199,42.709 344.381,40.254 343.858 C 36.663 343.093,34.014 339.937,34.014 336.424 C 34.014 333.047,34.470 332.254,50.531 307.723 C 60.447 292.578,60.385 292.905,54.936 284.432 C 49.412 275.844,47.003 271.468,44.048 264.652 C 13.853 195.005,46.352 115.092,116.238 87.137 C 137.130 78.780,161.490 75.446,181.563 78.196 M156.777 92.899 C 138.873 94.136,119.761 100.122,102.747 109.822 C 42.801 143.997,26.834 230.309,70.191 285.809 C 77.229 294.817,77.382 293.725,66.796 310.016 C 58.499 322.783,57.902 324.058,59.046 326.567 C 60.107 328.897,56.454 328.743,113.736 328.867 C 174.937 329.000,181.363 328.792,191.514 326.357 C 219.252 319.704,242.277 305.232,258.801 284.066 C 301.243 229.703,289.419 152.174,232.784 113.461 C 210.149 97.989,184.301 90.997,156.777 92.899 M175.307 97.061 C 231.985 102.175,275.968 146.911,279.886 203.431 C 284.097 264.160,238.960 317.598,177.839 324.247 C 171.459 324.941,66.507 324.948,65.293 324.255 C 63.490 323.225,63.997 322.086,71.291 310.768 C 81.989 294.170,81.959 294.415,74.467 284.540 C 39.056 237.861,41.704 175.215,80.919 131.911 C 101.733 108.926,142.005 94.057,175.307 97.061 M162.454 125.859 C 154.932 126.947,148.734 129.034,144.139 132.024 C 115.716 150.523,114.624 188.037,141.906 208.702 C 148.695 213.844,148.039 215.522,138.505 217.407 C 124.855 220.105,116.906 224.092,108.602 232.406 C 103.999 237.015,102.834 238.767,102.219 242.014 C 101.683 244.839,101.830 283.958,102.385 286.347 C 103.602 291.581,108.219 294.744,115.934 295.631 C 121.781 296.304,220.200 295.897,222.764 295.190 C 227.057 294.006,230.525 291.406,231.981 288.278 C 232.733 286.663,232.748 286.184,232.765 264.103 L 232.782 241.575 231.535 239.011 C 226.834 229.343,212.295 220.586,194.402 216.648 C 186.324 214.870,186.155 213.405,193.407 208.010 C 220.638 187.754,218.528 148.527,189.287 131.449 C 182.544 127.511,169.629 124.820,162.454 125.859 M171.612 130.209 C 184.860 132.362,193.169 137.155,200.228 146.717 C 214.573 166.148,210.020 191.404,189.609 205.622 C 183.519 209.864,182.355 211.682,183.503 215.159 C 184.511 218.216,186.580 219.395,193.272 220.727 C 206.545 223.368,215.865 227.895,223.304 235.314 C 228.394 240.390,228.758 241.152,228.741 246.703 C 228.717 254.077,227.850 255.295,225.574 251.152 C 218.923 239.045,207.212 231.419,190.866 228.552 C 180.631 226.756,177.735 224.368,174.731 215.245 C 172.433 208.266,173.768 205.664,182.234 200.628 C 196.526 192.126,202.825 178.773,199.693 163.620 C 195.580 143.723,172.356 132.068,153.946 140.662 C 128.904 152.353,127.489 186.305,151.465 200.188 C 159.880 205.060,161.464 208.365,159.349 216.635 C 157.392 224.288,154.313 226.678,144.139 228.445 C 125.742 231.640,115.890 238.176,109.161 251.648 C 107.708 254.557,107.790 254.468,107.150 253.824 C 106.417 253.087,105.744 248.303,105.942 245.239 C 106.182 241.528,107.129 239.743,110.954 235.790 C 118.571 227.916,126.222 224.126,140.293 221.255 C 153.149 218.632,155.365 213.150,146.210 206.617 C 130.800 195.620,124.131 180.947,126.886 164.103 C 130.358 142.869,151.398 126.925,171.612 130.209 M174.176 142.862 C 192.375 147.582,201.490 166.758,193.413 183.333 C 190.322 189.676,187.285 192.690,178.517 198.119 C 169.623 203.626,167.913 207.980,171.027 217.198 C 174.397 227.174,178.529 230.760,188.579 232.432 C 201.261 234.541,208.835 238.042,215.992 245.103 C 221.554 250.591,222.523 253.595,222.473 265.201 C 222.436 273.900,222.171 275.528,220.479 277.455 C 218.427 279.793,221.369 279.670,167.206 279.670 L 117.746 279.670 115.939 278.740 C 112.574 277.009,112.252 275.835,112.370 265.756 C 112.520 253.037,113.497 250.201,119.950 243.773 C 125.855 237.889,131.592 235.045,141.026 233.325 C 150.225 231.647,151.428 231.354,153.783 230.210 C 158.286 228.024,160.837 225.143,162.633 220.213 C 166.446 209.742,164.291 202.804,155.677 197.819 C 148.877 193.883,146.455 191.748,143.413 187.009 C 128.972 164.508,148.665 136.247,174.176 142.862 M228.189 278.232 C 229.808 281.488,228.582 287.534,225.949 289.276 C 221.998 291.891,225.346 291.738,169.231 291.868 C 111.994 292.000,113.656 292.077,109.040 289.061 C 106.346 287.301,105.219 282.595,106.551 278.663 C 107.173 276.827,107.365 276.885,110.475 279.839 C 114.933 284.074,109.406 283.700,167.399 283.700 C 225.755 283.700,220.130 284.100,224.359 279.649 C 227.142 276.720,227.391 276.628,228.189 278.232 " stroke="none" fill="#645c1c" fill-rule="evenodd"></path><path id="path4" d="M330.037 31.895 C 316.939 33.058,299.414 39.788,296.017 44.958 C 294.896 46.665,295.041 46.729,296.795 45.305 C 314.183 31.187,342.761 29.774,358.226 42.269 C 365.632 48.254,368.677 55.166,368.650 65.934 C 368.609 82.094,364.212 88.960,338.218 113.444 C 329.316 121.829,328.681 121.377,349.695 121.612 C 358.727 121.712,366.321 121.927,366.571 122.089 C 366.876 122.286,366.959 122.211,366.824 121.861 C 366.034 119.801,362.243 119.095,357.344 120.096 C 351.329 121.326,341.947 120.017,339.804 117.649 C 337.748 115.378,339.786 112.398,347.116 106.960 C 350.317 104.584,352.389 102.462,355.131 98.749 C 356.632 96.717,358.811 93.839,359.974 92.352 C 364.440 86.643,365.001 85.820,366.192 83.244 C 373.284 67.908,371.085 54.309,359.485 41.780 C 354.841 36.764,338.179 31.171,330.037 31.895 M294.139 57.968 C 294.139 59.626,298.287 64.493,300.105 64.969 C 300.679 65.119,300.557 64.861,299.559 63.808 C 298.853 63.063,297.345 61.339,296.207 59.977 C 295.070 58.614,294.139 57.710,294.139 57.968 M326.568 59.364 C 323.173 59.887,320.178 61.023,316.560 63.161 C 311.274 66.285,310.572 67.424,315.201 65.369 C 328.340 59.535,333.448 59.483,337.040 65.146 C 339.845 69.569,338.117 75.903,332.427 82.051 C 331.402 83.159,327.820 87.363,324.468 91.392 C 319.927 96.850,317.735 99.177,315.871 100.518 C 314.496 101.508,310.485 105.134,306.959 108.576 C 303.434 112.019,299.126 116.154,297.387 117.766 C 294.439 120.498,293.040 122.533,293.040 124.092 C 293.040 124.400,297.120 120.627,302.106 115.709 C 307.092 110.790,314.034 103.966,317.533 100.544 C 335.333 83.132,340.293 76.112,340.293 68.332 C 340.293 61.598,334.908 58.080,326.568 59.364 M144.334 72.602 C 141.166 72.935,140.208 73.216,135.677 75.137 C 133.843 75.915,129.887 77.124,126.886 77.826 C 118.847 79.704,115.983 80.794,106.227 85.694 C 104.313 86.655,101.698 87.801,100.416 88.240 C 95.151 90.044,92.211 92.024,79.991 101.999 C 70.237 109.959,58.221 122.259,53.558 129.057 C 52.843 130.099,51.621 131.859,50.844 132.967 C 42.533 144.806,42.787 144.293,40.449 154.029 C 40.352 154.432,41.529 152.289,43.063 149.267 C 64.471 107.101,101.951 80.743,150.183 73.934 C 154.909 73.267,177.219 73.274,182.051 73.943 C 226.496 80.104,259.248 101.188,283.511 139.262 C 291.771 152.222,298.545 169.916,301.295 185.714 C 301.628 187.628,302.146 190.595,302.447 192.308 C 304.794 205.695,302.995 232.118,298.709 247.223 C 289.862 278.401,275.201 299.705,247.736 321.296 C 228.171 336.676,199.702 346.811,172.711 348.006 C 160.126 348.563,40.185 348.318,38.553 347.731 C 36.661 347.052,37.170 347.539,39.469 348.608 C 42.483 350.009,50.636 350.170,116.484 350.129 L 170.879 350.095 176.829 349.031 C 180.101 348.446,184.057 347.886,185.620 347.786 C 191.700 347.398,194.796 346.859,199.074 345.443 C 201.497 344.641,204.881 343.649,206.593 343.239 C 213.496 341.586,216.477 340.542,220.534 338.354 C 221.832 337.654,224.295 336.558,226.007 335.920 C 230.571 334.217,234.203 332.308,237.101 330.087 C 239.880 327.958,244.449 324.923,244.936 324.884 C 245.295 324.855,247.087 323.502,251.711 319.767 C 253.590 318.249,255.705 316.608,256.410 316.120 C 259.017 314.317,269.518 304.239,270.915 302.198 C 271.398 301.493,272.183 300.337,272.660 299.630 C 273.136 298.923,275.046 296.862,276.905 295.051 C 280.017 292.017,280.451 291.412,282.417 287.363 C 283.591 284.945,285.406 281.566,286.451 279.853 C 292.027 270.714,297.286 257.998,300.010 247.070 C 300.361 245.659,301.172 242.940,301.812 241.026 C 303.923 234.709,304.350 226.785,304.119 198.168 C 304.012 184.784,303.992 184.575,302.527 180.743 C 301.259 177.426,299.708 172.582,298.547 168.315 C 298.109 166.703,297.332 164.396,296.820 163.187 C 293.546 155.447,292.646 152.123,292.749 148.145 C 292.824 145.222,292.740 144.705,292.043 143.819 C 290.890 142.353,290.383 139.271,290.531 134.625 C 290.674 130.107,290.599 130.066,288.646 133.595 C 286.374 137.701,284.338 136.930,279.875 130.271 C 278.814 128.688,276.835 126.298,275.478 124.960 C 274.120 123.622,272.043 121.374,270.862 119.963 C 266.613 114.892,259.737 107.485,258.181 106.303 C 257.308 105.639,255.440 104.190,254.029 103.082 C 248.743 98.931,244.820 96.056,243.223 95.162 C 239.432 93.041,236.552 91.277,232.112 88.358 C 227.075 85.047,225.178 84.131,215.707 80.440 C 210.546 78.429,208.677 77.898,203.433 76.958 C 200.031 76.348,195.541 75.342,193.456 74.722 C 188.732 73.319,185.639 72.925,177.389 72.677 C 166.285 72.343,147.205 72.300,144.334 72.602 M156.410 97.083 C 135.829 98.405,112.470 107.146,94.366 120.299 C 50.107 152.455,36.362 220.082,64.142 269.008 C 68.748 277.120,78.763 291.051,78.747 289.324 C 78.732 287.801,77.471 285.608,74.779 282.428 C 71.796 278.904,67.846 272.419,64.331 265.276 C 63.013 262.598,61.457 259.699,60.873 258.834 C 59.711 257.113,57.745 252.493,57.333 250.517 C 57.189 249.830,56.336 246.712,55.436 243.590 C 54.536 240.467,53.564 237.046,53.277 235.987 C 52.990 234.928,52.674 231.796,52.575 229.027 C 52.476 226.258,52.217 222.674,51.999 221.062 C 51.161 214.856,51.163 210.002,52.007 205.495 C 52.526 202.719,52.904 198.659,53.116 193.590 C 53.441 185.803,53.607 184.825,55.332 180.586 C 56.429 177.891,58.012 173.031,59.010 169.294 C 59.967 165.712,63.453 158.400,66.550 153.480 C 67.755 151.566,69.628 148.269,70.712 146.154 C 72.674 142.327,72.733 142.259,82.287 132.727 L 91.889 123.146 95.670 121.276 C 98.363 119.943,100.505 118.512,103.114 116.301 C 106.828 113.154,108.699 112.146,113.370 110.778 C 116.069 109.987,118.454 108.901,120.147 107.692 C 122.015 106.357,124.566 105.248,127.380 104.546 C 128.740 104.206,131.326 103.368,133.125 102.684 C 137.448 101.038,138.476 100.833,144.518 100.404 C 147.339 100.203,151.292 99.683,153.303 99.247 C 156.423 98.570,157.551 98.493,160.989 98.722 C 163.205 98.870,167.985 99.036,171.612 99.091 C 175.238 99.146,179.524 99.293,181.136 99.417 C 182.747 99.540,185.302 99.733,186.813 99.844 C 191.617 100.196,194.242 100.789,197.315 102.214 C 200.068 103.491,201.733 104.065,207.326 105.669 C 208.434 105.987,210.659 106.978,212.271 107.872 C 213.883 108.765,216.997 110.422,219.191 111.554 C 223.784 113.923,225.148 114.768,228.938 117.593 C 230.449 118.719,233.004 120.610,234.615 121.795 C 236.227 122.980,239.098 125.487,240.995 127.366 C 242.892 129.245,245.529 131.504,246.856 132.385 C 250.424 134.755,252.713 137.503,256.038 143.407 C 257.225 145.515,260.077 149.888,263.561 154.945 C 264.464 156.255,265.717 158.562,266.346 160.073 C 266.975 161.584,268.156 164.139,268.970 165.751 C 270.292 168.368,271.157 170.592,275.090 181.502 C 275.817 183.519,276.332 186.030,276.741 189.560 C 277.068 192.381,277.505 196.007,277.713 197.619 C 278.278 202.006,278.111 220.380,277.471 224.176 C 277.182 225.888,276.856 229.020,276.746 231.136 C 276.459 236.646,275.465 241.265,274.007 243.862 C 273.808 244.216,273.138 245.989,272.518 247.802 C 271.897 249.615,270.553 252.665,269.529 254.579 C 268.506 256.493,266.942 259.789,266.054 261.905 C 264.265 266.165,263.292 267.727,260.706 270.482 C 259.674 271.580,258.351 273.621,257.480 275.458 C 255.151 280.369,255.064 280.494,250.210 285.874 C 244.484 292.221,239.115 297.042,233.883 300.537 C 231.667 302.017,228.947 304.013,227.839 304.971 C 221.826 310.173,212.842 314.428,202.330 317.052 C 199.611 317.731,195.543 319.028,193.290 319.935 C 184.650 323.413,184.010 323.457,142.308 323.428 C 123.168 323.415,99.648 323.521,90.039 323.664 C 70.768 323.952,70.087 323.889,68.654 321.702 C 67.244 319.549,67.973 317.627,72.832 310.686 C 76.348 305.663,80.370 297.848,78.420 299.827 C 76.721 301.552,64.469 321.523,64.469 322.569 C 64.469 324.858,61.070 324.725,119.780 324.725 C 175.248 324.725,176.689 324.692,185.531 323.220 C 245.686 313.203,288.542 254.062,278.930 194.330 C 269.188 133.788,217.963 93.130,156.410 97.083 M159.537 124.962 C 157.048 125.311,154.529 126.076,151.731 127.334 C 150.669 127.812,148.442 128.668,146.781 129.236 C 141.838 130.929,135.001 136.133,132.202 140.335 C 125.403 150.540,122.807 156.093,121.004 164.286 C 118.238 176.852,125.176 195.169,136.865 206.163 C 142.828 211.772,141.268 216.704,133.073 218.156 C 130.481 218.615,125.978 219.848,120.147 221.695 C 115.625 223.128,112.214 226.076,105.765 234.128 C 105.012 235.068,104.396 235.962,104.396 236.113 C 104.396 236.265,104.123 236.691,103.789 237.059 C 103.456 237.427,103.332 237.728,103.515 237.726 C 103.697 237.725,104.237 237.149,104.716 236.447 C 110.698 227.663,123.709 220.331,138.505 217.407 C 148.039 215.522,148.695 213.844,141.906 208.702 C 114.624 188.037,115.716 150.523,144.139 132.024 C 156.457 124.007,176.116 123.757,189.287 131.449 C 218.528 148.527,220.638 187.754,193.407 208.010 C 186.155 213.405,186.324 214.870,194.402 216.648 C 208.567 219.766,217.699 224.158,225.546 231.628 C 228.838 234.762,229.616 234.717,226.928 231.548 C 226.156 230.639,222.545 227.839,222.143 227.839 C 221.859 227.839,217.713 224.976,216.681 224.067 C 216.270 223.705,215.687 223.190,215.385 222.923 C 213.509 221.263,206.882 218.682,204.494 218.681 C 203.544 218.681,199.611 216.744,197.110 215.046 C 192.953 212.223,193.214 211.014,199.209 205.322 C 203.306 201.432,208.431 193.521,209.895 188.828 C 210.146 188.022,210.473 187.198,210.622 186.996 C 210.770 186.795,211.420 185.147,212.067 183.333 C 215.351 174.117,215.553 166.507,212.657 161.061 C 212.150 160.108,211.338 157.971,210.851 156.313 C 209.435 151.489,208.531 149.689,205.626 145.914 C 205.030 145.139,204.229 143.764,203.846 142.857 C 201.915 138.285,201.250 137.689,192.125 132.345 C 181.299 126.006,170.131 123.475,159.537 124.962 M162.732 142.139 C 146.499 145.054,135.584 160.981,138.957 176.835 C 140.421 183.716,145.656 191.567,151.099 195.043 C 154.498 197.214,158.715 199.648,158.848 199.516 C 159.156 199.208,154.908 195.496,152.346 193.834 C 146.664 190.149,141.746 183.039,141.030 177.473 C 139.949 169.064,142.388 157.861,146.209 153.691 C 150.475 149.036,160.188 143.589,165.269 143.002 C 172.910 142.120,185.179 148.366,190.170 155.679 C 194.928 162.651,194.966 178.795,190.241 185.770 C 186.909 190.687,184.776 192.777,180.403 195.406 C 177.307 197.268,174.359 199.700,174.359 200.391 C 174.359 200.814,182.841 195.521,185.488 193.447 C 199.650 182.346,199.885 159.994,185.959 148.702 C 179.861 143.758,169.703 140.888,162.732 142.139 M300.477 147.258 C 301.711 147.628,360.883 147.594,362.454 147.222 C 363.059 147.079,349.130 146.959,331.502 146.955 C 313.597 146.952,299.904 147.085,300.477 147.258 M38.954 157.067 C 38.837 157.512,38.604 157.875,38.436 157.875 C 37.061 157.875,32.160 170.685,31.499 176.007 C 31.140 178.896,29.129 190.182,28.137 194.872 C 27.945 195.778,27.640 201.300,27.460 207.143 C 27.279 212.985,27.055 218.755,26.963 219.963 C 26.765 222.539,27.251 226.325,28.210 229.670 C 28.586 230.980,29.310 234.029,29.821 236.447 C 31.612 244.924,32.673 248.743,34.350 252.747 C 34.560 253.251,35.000 254.982,35.327 256.593 C 36.588 262.809,39.108 268.944,42.725 274.597 C 43.461 275.748,45.621 279.720,47.526 283.424 C 52.231 292.573,52.387 294.587,48.802 299.883 C 48.009 301.055,46.552 303.549,45.566 305.425 C 44.580 307.300,42.668 310.267,41.318 312.018 C 38.924 315.121,37.509 317.327,35.516 321.062 C 34.979 322.070,33.701 324.388,32.678 326.215 C 31.654 328.042,30.712 330.020,30.584 330.611 C 30.422 331.358,30.727 331.015,31.584 329.487 C 32.261 328.278,34.525 324.652,36.614 321.429 C 38.703 318.205,42.006 313.095,43.953 310.073 C 45.901 307.051,48.837 302.552,50.477 300.076 C 55.306 292.786,55.305 292.759,49.997 284.432 C 26.350 247.341,22.048 199.750,38.648 158.895 C 39.149 157.662,39.471 156.565,39.362 156.456 C 39.254 156.348,39.070 156.623,38.954 157.067 M163.430 205.728 C 166.928 213.636,161.961 226.241,153.783 230.210 C 151.428 231.354,150.225 231.647,141.026 233.325 C 126.655 235.946,115.553 244.531,113.069 254.945 C 112.268 258.302,112.208 266.494,112.982 266.791 C 114.014 267.187,114.391 265.692,114.114 262.306 C 113.574 255.701,113.739 254.827,116.303 250.733 C 116.807 249.927,117.538 248.677,117.927 247.955 C 120.350 243.456,131.623 237.027,140.379 235.150 C 154.256 232.175,155.892 231.401,160.072 225.824 C 160.978 224.615,161.804 223.544,161.906 223.443 C 162.008 223.342,162.556 222.638,163.122 221.878 C 166.260 217.670,167.565 217.559,171.154 221.196 C 172.514 222.575,173.626 223.667,173.626 223.624 C 173.626 223.580,173.149 222.492,172.566 221.205 C 169.899 215.321,169.008 208.981,170.403 205.813 C 171.000 204.456,170.352 204.144,169.039 205.157 C 168.345 205.693,164.231 205.309,163.568 204.646 C 162.633 203.711,162.611 203.878,163.430 205.728 M177.289 228.382 C 179.117 230.334,184.716 232.468,196.520 235.711 C 207.313 238.676,215.294 244.571,218.590 252.015 C 220.613 256.582,220.919 257.139,221.616 257.511 C 222.514 257.992,222.527 257.779,221.780 254.613 C 220.374 248.647,214.136 241.810,206.777 238.167 C 200.629 235.124,196.025 233.670,188.657 232.445 C 183.205 231.538,180.803 230.640,177.839 228.398 L 176.007 227.012 177.289 228.382 M232.732 242.766 C 232.857 243.521,232.961 246.158,232.963 248.626 C 232.966 252.206,233.070 253.114,233.475 253.114 C 234.911 253.114,235.065 246.046,233.696 242.949 C 232.846 241.025,232.431 240.946,232.732 242.766 M101.474 243.315 C 100.568 245.828,100.561 255.648,101.466 254.715 C 101.707 254.466,102.190 242.123,101.959 242.124 C 101.928 242.124,101.710 242.660,101.474 243.315 M221.138 272.646 C 220.021 274.352,217.542 276.556,215.806 277.388 L 214.103 278.205 188.278 278.248 C 174.075 278.272,157.344 278.331,151.099 278.378 C 126.285 278.568,119.163 277.835,115.686 274.737 C 113.153 272.479,112.266 272.323,112.569 274.191 C 112.900 276.232,114.138 277.884,116.039 278.820 L 117.766 279.670 167.216 279.670 C 207.071 279.670,216.930 279.577,218.022 279.190 C 220.564 278.289,222.936 274.334,222.082 272.421 C 221.774 271.731,221.731 271.741,221.138 272.646 M233.211 277.079 C 232.847 278.029,232.916 284.982,233.290 284.982 C 233.679 284.982,234.434 282.135,234.427 280.699 C 234.418 279.042,233.503 276.318,233.211 277.079 M101.142 280.861 C 101.117 282.172,101.255 283.150,101.465 283.150 C 101.882 283.150,101.882 281.307,101.465 279.670 C 101.243 278.796,101.177 279.038,101.142 280.861 M106.813 293.186 C 107.082 293.888,109.933 295.140,113.082 295.941 C 118.637 297.353,122.316 297.458,164.171 297.403 C 186.395 297.373,206.068 297.469,207.888 297.617 C 212.377 297.980,220.199 296.825,223.260 295.348 C 224.202 294.893,224.228 294.847,223.443 295.022 C 219.445 295.915,213.907 295.998,165.568 295.889 C 109.454 295.763,112.827 295.897,108.356 293.611 C 107.384 293.113,106.714 292.929,106.813 293.186 " stroke="none" fill="#1c170b" fill-rule="evenodd"></path></g></svg>